<?xml version="1.0" encoding="utf-8"?>
<!-- Generator: Adobe Illustrator 16.0.0, SVG Export Plug-In . SVG Version: 6.00 Build 0)  -->
<!DOCTYPE svg PUBLIC "-//W3C//DTD SVG 1.1//EN" "http://www.w3.org/Graphics/SVG/1.1/DTD/svg11.dtd">
<svg version="1.1" id="Layer_1" xmlns="http://www.w3.org/2000/svg" xmlns:xlink="http://www.w3.org/1999/xlink" x="0px" y="0px"
	 width="263.764px" height="186.64px" viewBox="0 0 263.764 186.64" enable-background="new 0 0 263.764 186.64"
	 xml:space="preserve">
<g>
	<g>
		<path fill="#FFFFFF" d="M25.371,94.807c-3.279,1.901-6.167,4.064-9.096,6.31c-0.255,0.197-0.525,0.379-0.797,0.565
			c-1.27,0.869-3.01,2.06-4.115,4.172c-0.995,1.863-0.973,4.089,0.059,5.809c0.967,1.612,2.671,2.589,4.578,2.628
			c-1.146,1.548-2.182,3.318-2.742,5.373c-0.476,1.745-0.15,3.53,0.895,4.897c0.699,0.916,1.655,1.565,2.738,1.887
			c-2.502,7.138-2.509,15.023,0.02,21.851c0.782,2.103,2.731,3.46,4.964,3.46c1.285,0,2.563-0.479,3.601-1.273
			c0.768,1.405,1.636,2.718,2.598,3.921c5.613,7.022,14.011,9.624,21.419,11.919c1.587,0.492,3.085,0.956,4.542,1.454
			c3.006,1.031,6.102,1.786,9.096,2.516c1.847,0.449,3.591,0.875,5.299,1.356c5.758,1.621,10.549,2.794,15.081,3.688
			c7.074,1.396,15.396,2.911,23.746,3.645c0.947,0.375,1.879,0.736,2.786,1.088l1.643,0.638c5.338,2.078,11.72,3.132,18.969,3.132
			c1.487,0,3.022-0.046,4.565-0.136c1.543,0.09,3.079,0.136,4.567,0.136c7.248,0,13.631-1.054,18.98-3.136l1.751-0.681
			c0.87-0.336,1.765-0.682,2.669-1.041c8.353-0.734,16.673-2.249,23.748-3.645c4.53-0.896,9.322-2.068,15.082-3.688
			c1.709-0.482,3.453-0.908,5.302-1.358c2.991-0.729,6.084-1.482,9.089-2.513c1.46-0.499,2.959-0.964,4.547-1.456
			c7.408-2.295,15.806-4.896,21.424-11.925c0.956-1.2,1.82-2.508,2.586-3.908c1.034,0.787,2.309,1.268,3.602,1.268
			c2.241,0,4.191-1.366,4.96-3.464c2.531-6.813,2.527-14.7,0.024-21.846c1.09-0.324,2.051-0.979,2.751-1.902
			c1.044-1.375,1.361-3.165,0.882-4.884c-0.561-2.054-1.596-3.824-2.74-5.372c1.903-0.04,3.604-1.013,4.571-2.62
			c1.031-1.715,1.057-3.939,0.085-5.77c-0.206-0.394-0.444-0.773-0.728-1.156c-0.079-0.113-0.164-0.222-0.253-0.327
			c-1.016-1.26-2.193-2.07-3.146-2.726c-0.271-0.187-0.542-0.369-0.82-0.585c-2.907-2.229-5.79-4.388-9.087-6.302
			c-1.779-1.029-3.568-1.883-5.165-2.582c-0.651-2.074-1.443-4.14-2.37-6.181c4.879-3.228,11.046-8.179,13.826-15.496
			c0.271-0.71,0.527-1.459,0.769-2.204l0.155-0.499c0.201-0.642,0.393-1.302,0.572-1.967l0.124-0.466
			c0.208-0.801,0.404-1.618,0.589-2.486c0.8-3.789,2.014-11.831,0.087-19.519c0.43-0.723,0.675-1.567,0.675-2.47
			c0-0.512-0.078-1.006-0.227-1.469c-0.106-0.502-0.206-1.017-0.315-1.572c-1.068-5.622-2.866-10.214-5.822-14.877
			c-0.679-1.076-1.468-2.212-2.411-3.472c-0.142-0.188-0.296-0.367-0.462-0.532c-0.082-0.09-0.165-0.178-0.239-0.251
			c-1.728-1.743-3.818-3.207-6.212-4.352c-0.417-0.199-0.86-0.338-1.316-0.412l-0.288-0.046c-1.447-0.235-2.944-0.478-4.477-0.678
			c-1.295-0.164-2.671-0.249-4.089-0.249c-3.49,0-6.868,0.496-9.71,0.981c-6.568,1.118-13.13,3.542-19.572,7.248l-0.163,0.092
			c-1.256,0.73-2.29,1.363-3.254,1.994c-1.196,0.781-2.42,1.646-3.832,2.715c-0.073,0.049-0.145,0.101-0.216,0.155l-0.313,0.246
			c-0.27,0.207-0.538,0.416-0.807,0.627c-4.292-2.082-9.78-4.168-15.284-4.681c-0.071-0.007-0.143-0.013-0.214-0.02
			c-0.867-2.105-3.026-3.605-5.279-3.661c-0.891-0.023-1.777-0.069-2.665-0.114c-2.203-0.109-4.652-0.202-6.737-0.057
			c0.145-0.838,0.182-1.722,0.054-2.64c-0.39-2.713-2.688-4.683-5.466-4.683c-0.944,0-1.88,0.238-2.686,0.677
			c-0.628,0.338-1.245,0.705-1.854,1.104c-0.992-1.033-2.386-1.654-3.922-1.654c-0.936,0-1.864,0.241-2.702,0.708
			c-0.853,0.479-1.68,0.979-2.484,1.497c-0.107-0.185-0.227-0.363-0.355-0.536c-1.295-1.724-3.467-2.544-5.676-2.086
			c-4.306,0.899-8.195,3.581-11.229,6.656c-0.326-0.284-0.647-0.55-0.957-0.806c-0.762-0.63-1.48-1.225-1.844-1.738
			c-0.981-1.406-2.576-2.247-4.269-2.247c-2.951,0-5.444,2.527-5.444,5.546c0.001,0.119,0.003,0.238,0.005,0.356
			c-1.259-0.161-2.595-0.237-4.089-0.237c-1.443,0-2.852,0.071-4.213,0.14c-0.887,0.045-1.777,0.091-2.663,0.114
			c-2.263,0.055-4.422,1.556-5.29,3.661c-0.071,0.007-0.144,0.013-0.217,0.02c-6.812,0.635-13.576,3.64-18.313,6.236
			c-2.39-2.012-4.729-3.758-7.089-5.298c-0.954-0.624-2.009-1.271-3.247-1.991l-0.576-0.325c-0.973-0.554-1.971-1.087-2.972-1.592
			c-0.084-0.045-0.166-0.09-0.25-0.132c-0.07-0.034-0.142-0.067-0.213-0.099c-5.174-2.554-10.464-4.301-15.725-5.196
			c-2.842-0.485-6.22-0.981-9.714-0.981c-1.418,0-2.793,0.085-4.101,0.251c-1.459,0.189-2.896,0.422-4.288,0.646l-0.466,0.074
			c-0.462,0.074-0.91,0.215-1.33,0.416c-2.378,1.143-4.462,2.604-6.219,4.368c-0.065,0.067-0.127,0.134-0.199,0.211
			c-0.172,0.17-0.331,0.351-0.476,0.543c-0.911,1.212-1.701,2.349-2.413,3.474c-2.958,4.673-4.755,9.264-5.82,14.86l-0.062,0.316
			c-0.109,0.561-0.216,1.118-0.342,1.67c-0.28,1.22-0.071,2.46,0.519,3.49c-1.82,7.101-0.924,14.549,0.008,19.142
			c0.009,0.051,0.018,0.103,0.028,0.153c0.57,2.772,1.359,5.51,2.275,7.901c3.016,7.952,10.041,13.112,15.063,16.303
			c0.87,0.554,1.74,1.116,2.611,1.68c0.014,0.009,0.025,0.018,0.039,0.024c-0.485,1.224-0.922,2.448-1.308,3.671
			C28.952,92.918,27.165,93.771,25.371,94.807z"/>
		<path fill="#F1F1F1" d="M24.764,94.078c-3.279,1.901-6.173,4.057-9.096,6.31c-0.255,0.196-0.524,0.378-0.795,0.564
			c-1.271,0.87-3.002,2.065-4.116,4.173c-0.987,1.868-0.974,4.089,0.058,5.809c0.967,1.612,2.672,2.589,4.579,2.627
			c-1.146,1.549-2.183,3.319-2.743,5.374c-0.476,1.744-0.149,3.53,0.896,4.897c0.698,0.916,1.654,1.564,2.737,1.887
			c-2.502,7.138-2.509,15.023,0.02,21.851c0.782,2.103,2.731,3.46,4.964,3.46c1.285,0,2.563-0.479,3.601-1.273
			c0.77,1.405,1.636,2.718,2.598,3.921c5.613,7.022,14.011,9.624,21.419,11.919c1.587,0.491,3.086,0.956,4.543,1.454
			c3.005,1.031,6.101,1.786,9.096,2.516c1.846,0.448,3.59,0.875,5.299,1.355c5.757,1.622,10.549,2.794,15.08,3.688
			c7.074,1.396,15.396,2.912,23.746,3.646c0.947,0.376,1.88,0.736,2.786,1.087l1.643,0.639c5.339,2.078,11.721,3.132,18.969,3.132
			c1.487,0,3.022-0.046,4.565-0.136c1.544,0.09,3.079,0.136,4.567,0.136c7.248,0,13.631-1.054,18.981-3.137l1.75-0.68
			c0.871-0.336,1.765-0.682,2.67-1.041c8.353-0.735,16.673-2.249,23.748-3.646c4.529-0.896,9.321-2.067,15.081-3.688
			c1.709-0.481,3.454-0.907,5.302-1.357c2.991-0.729,6.084-1.482,9.09-2.513c1.459-0.499,2.959-0.965,4.546-1.456
			c7.409-2.295,15.807-4.896,21.424-11.925c0.956-1.201,1.82-2.508,2.586-3.909c1.034,0.788,2.31,1.269,3.602,1.269
			c2.241,0,4.187-1.368,4.961-3.464c2.517-6.818,2.527-14.7,0.023-21.846c1.09-0.324,2.051-0.979,2.751-1.902
			c1.044-1.375,1.356-3.163,0.882-4.884c-0.566-2.052-1.596-3.824-2.739-5.373c1.902-0.038,3.604-1.012,4.57-2.619
			c1.032-1.715,1.051-3.936,0.085-5.77c-0.207-0.394-0.449-0.77-0.728-1.156c-0.081-0.113-0.165-0.221-0.252-0.327
			c-1.027-1.25-2.193-2.07-3.146-2.727c-0.271-0.187-0.542-0.368-0.821-0.584c-2.907-2.229-5.79-4.388-9.086-6.303
			c-1.78-1.028-3.568-1.882-5.166-2.581c-0.65-2.075-1.442-4.141-2.37-6.182c4.879-3.227,11.046-8.179,13.827-15.495
			c0.271-0.71,0.527-1.459,0.768-2.204l0.155-0.499c0.202-0.642,0.394-1.302,0.572-1.966l0.124-0.468
			c0.209-0.801,0.404-1.616,0.59-2.485c0.799-3.789,2.014-11.832,0.087-19.519c0.429-0.723,0.674-1.567,0.674-2.47
			c0-0.513-0.078-1.006-0.227-1.469c-0.106-0.503-0.208-1.017-0.315-1.572c-1.084-5.619-2.865-10.215-5.822-14.877
			c-0.679-1.076-1.468-2.212-2.411-3.472c-0.141-0.188-0.295-0.367-0.462-0.532c-0.082-0.09-0.165-0.178-0.239-0.251
			c-1.731-1.739-3.818-3.207-6.212-4.353c-0.417-0.198-0.86-0.337-1.316-0.412l-0.288-0.046c-1.447-0.235-2.944-0.477-4.477-0.677
			c-1.295-0.164-2.671-0.249-4.089-0.249c-3.49,0-6.868,0.497-9.71,0.981c-6.568,1.118-13.129,3.542-19.571,7.248l-0.164,0.092
			c-1.255,0.73-2.29,1.362-3.254,1.994c-1.196,0.781-2.42,1.646-3.832,2.715c-0.072,0.048-0.145,0.1-0.216,0.154l-0.313,0.247
			c-0.269,0.207-0.538,0.416-0.806,0.626c-4.293-2.082-9.784-4.135-15.284-4.68c-0.072-0.007-0.144-0.013-0.214-0.02
			c-0.868-2.104-3.027-3.605-5.279-3.661c-0.89-0.023-1.778-0.069-2.666-0.114c-2.202-0.109-4.652-0.203-6.736-0.058
			c0.144-0.837,0.183-1.721,0.054-2.639c-0.385-2.714-2.689-4.683-5.466-4.683c-0.943,0-1.881,0.238-2.687,0.677
			c-0.627,0.338-1.245,0.705-1.854,1.104c-0.993-1.033-2.387-1.654-3.922-1.654c-0.937,0-1.864,0.241-2.703,0.708
			c-0.853,0.479-1.679,0.979-2.484,1.496c-0.107-0.184-0.226-0.362-0.355-0.535c-1.295-1.724-3.467-2.544-5.676-2.086
			c-4.306,0.899-8.194,3.58-11.228,6.656c-0.326-0.283-0.648-0.55-0.958-0.806c-0.762-0.63-1.481-1.224-1.844-1.739
			c-0.985-1.403-2.576-2.246-4.269-2.246c-2.951,0-5.457,2.527-5.444,5.545c0,0.119,0.003,0.239,0.006,0.357
			c-1.259-0.161-2.596-0.238-4.09-0.238c-1.442,0-2.851,0.072-4.212,0.141c-0.887,0.045-1.778,0.091-2.664,0.114
			c-2.262,0.055-4.422,1.556-5.289,3.661c-0.071,0.007-0.145,0.013-0.218,0.02c-6.808,0.671-13.576,3.639-18.313,6.236
			c-2.39-2.012-4.729-3.758-7.089-5.298c-0.954-0.625-2.009-1.271-3.247-1.992l-0.576-0.324c-0.972-0.554-1.979-1.07-2.972-1.592
			c-0.084-0.044-0.166-0.091-0.25-0.132c-0.07-0.034-0.142-0.067-0.212-0.099c-5.174-2.554-10.465-4.301-15.725-5.196
			c-2.843-0.484-6.22-0.981-9.715-0.981c-1.418,0-2.793,0.085-4.101,0.251c-1.459,0.189-2.896,0.422-4.288,0.646l-0.466,0.074
			c-0.462,0.073-0.909,0.215-1.33,0.416c-2.378,1.143-4.479,2.586-6.219,4.367c-0.066,0.067-0.126,0.135-0.198,0.212
			c-0.172,0.169-0.331,0.351-0.477,0.543c-0.91,1.212-1.701,2.349-2.412,3.474c-2.958,4.673-4.756,9.264-5.821,14.859l-0.062,0.317
			c-0.109,0.56-0.216,1.118-0.342,1.67c-0.279,1.22-0.071,2.46,0.519,3.49c-1.82,7.1-0.923,14.549,0.009,19.142
			c0.008,0.051,0.018,0.103,0.027,0.153c0.57,2.772,1.359,5.509,2.275,7.901c3.017,7.952,10.041,13.111,15.063,16.303
			c0.871,0.554,1.74,1.116,2.611,1.68c0.014,0.009,0.026,0.017,0.039,0.024c-0.484,1.223-0.922,2.448-1.307,3.67
			C28.346,92.188,26.558,93.042,24.764,94.078z"/>
		<path fill="#E2E2E2" d="M24.158,93.35c-3.28,1.901-6.172,4.059-9.097,6.311c-0.255,0.195-0.526,0.379-0.797,0.564
			c-1.27,0.869-3.002,2.064-4.116,4.172c-0.986,1.867-0.972,4.089,0.06,5.81c0.967,1.611,2.671,2.589,4.577,2.627
			c-1.144,1.548-2.181,3.318-2.741,5.373c-0.476,1.745-0.15,3.53,0.896,4.897c0.699,0.916,1.654,1.565,2.736,1.887
			c-2.501,7.138-2.507,15.023,0.021,21.851c0.782,2.103,2.73,3.46,4.964,3.46c1.285,0,2.563-0.479,3.601-1.273
			c0.768,1.406,1.636,2.718,2.597,3.921c5.614,7.022,14.012,9.624,21.421,11.919c1.585,0.492,3.085,0.956,4.542,1.454
			c3.005,1.031,6.102,1.786,9.095,2.516c1.847,0.449,3.591,0.875,5.3,1.356c5.758,1.621,10.549,2.794,15.08,3.688
			c7.074,1.396,15.396,2.911,23.746,3.645c0.947,0.376,1.88,0.736,2.785,1.088l1.644,0.638c5.338,2.078,11.721,3.132,18.969,3.132
			c1.487,0,3.023-0.046,4.566-0.136c1.542,0.09,3.078,0.136,4.566,0.136c7.248,0,13.631-1.054,18.981-3.136l1.75-0.681
			c0.871-0.336,1.766-0.682,2.669-1.041c8.352-0.734,16.674-2.249,23.748-3.645c4.53-0.896,9.323-2.068,15.082-3.688
			c1.709-0.482,3.454-0.908,5.302-1.358c2.992-0.729,6.085-1.482,9.088-2.513c1.46-0.499,2.96-0.964,4.548-1.456
			c7.409-2.295,15.807-4.896,21.424-11.925c0.957-1.2,1.82-2.508,2.586-3.908c1.034,0.787,2.31,1.268,3.602,1.268
			c2.241,0,4.19-1.366,4.961-3.464c2.531-6.813,2.527-14.7,0.023-21.846c1.091-0.323,2.051-0.979,2.751-1.901
			c1.044-1.376,1.357-3.164,0.882-4.885c-0.566-2.052-1.596-3.824-2.739-5.372c1.903-0.039,3.604-1.013,4.57-2.62
			c1.031-1.714,1.052-3.937,0.085-5.77c-0.206-0.393-0.448-0.771-0.728-1.156c-0.08-0.112-0.165-0.221-0.254-0.327
			c-1.03-1.247-2.193-2.068-3.146-2.726c-0.269-0.186-0.541-0.37-0.819-0.585c-2.899-2.239-5.79-4.388-9.086-6.302
			c-1.781-1.029-3.568-1.883-5.166-2.582c-0.652-2.074-1.444-4.14-2.37-6.181c4.879-3.228,11.047-8.179,13.826-15.496
			c0.271-0.71,0.528-1.459,0.769-2.204l0.155-0.499c0.201-0.642,0.394-1.301,0.571-1.966l0.124-0.467
			c0.209-0.801,0.405-1.617,0.59-2.486c0.8-3.789,2.015-11.831,0.088-19.519c0.428-0.723,0.675-1.567,0.675-2.47
			c0-0.512-0.08-1.006-0.227-1.469c-0.107-0.502-0.209-1.017-0.315-1.572c-1.08-5.62-2.868-10.214-5.823-14.877
			c-0.678-1.076-1.468-2.212-2.411-3.472c-0.141-0.188-0.295-0.367-0.462-0.532c-0.081-0.089-0.165-0.178-0.238-0.251
			c-1.732-1.739-3.818-3.207-6.214-4.352c-0.416-0.199-0.858-0.338-1.315-0.411l-0.289-0.047c-1.446-0.235-2.943-0.478-4.476-0.678
			c-1.296-0.164-2.671-0.249-4.09-0.249c-3.49,0-6.867,0.497-9.71,0.981c-6.567,1.118-13.129,3.542-19.57,7.248l-0.165,0.092
			c-1.254,0.73-2.288,1.363-3.253,1.994c-1.197,0.781-2.419,1.647-3.833,2.715c-0.071,0.049-0.144,0.101-0.215,0.155l-0.313,0.246
			c-0.269,0.207-0.538,0.416-0.806,0.627c-4.293-2.082-9.781-4.168-15.284-4.681c-0.072-0.006-0.144-0.013-0.215-0.02
			c-0.867-2.104-3.027-3.605-5.278-3.661c-0.891-0.023-1.778-0.069-2.667-0.113c-2.201-0.11-4.651-0.203-6.736-0.058
			c0.145-0.838,0.185-1.722,0.055-2.64c-0.383-2.714-2.69-4.683-5.466-4.683c-0.945,0-1.881,0.238-2.687,0.677
			c-0.627,0.338-1.245,0.705-1.854,1.104c-0.993-1.032-2.387-1.654-3.923-1.654c-0.935,0-1.863,0.242-2.702,0.708
			c-0.853,0.479-1.68,0.979-2.484,1.497c-0.107-0.185-0.227-0.363-0.355-0.536c-1.29-1.728-3.467-2.544-5.676-2.086
			c-4.305,0.899-8.195,3.581-11.228,6.656c-0.328-0.283-0.648-0.55-0.959-0.806c-0.761-0.63-1.481-1.224-1.843-1.738
			c-0.984-1.403-2.576-2.247-4.268-2.247c-2.952,0-5.445,2.527-5.445,5.546c0,0.119,0.003,0.238,0.006,0.356
			c-1.26-0.16-2.596-0.237-4.091-0.237c-1.442,0-2.85,0.071-4.211,0.141c-0.889,0.044-1.779,0.09-2.664,0.113
			c-2.263,0.055-4.422,1.556-5.289,3.661c-0.073,0.007-0.145,0.014-0.218,0.02c-6.812,0.635-13.575,3.64-18.313,6.236
			c-2.391-2.011-4.729-3.758-7.09-5.298c-0.954-0.624-2.009-1.271-3.247-1.991l-0.576-0.325c-0.973-0.553-1.979-1.07-2.973-1.592
			c-0.084-0.044-0.164-0.089-0.25-0.131c-0.069-0.034-0.14-0.068-0.211-0.1c-5.174-2.553-10.466-4.301-15.725-5.196
			c-2.843-0.484-6.22-0.981-9.714-0.981c-1.419,0-2.794,0.085-4.102,0.251c-1.458,0.189-2.896,0.422-4.288,0.646l-0.466,0.075
			c-0.461,0.073-0.909,0.214-1.33,0.415c-2.378,1.143-4.479,2.586-6.22,4.368c-0.065,0.066-0.126,0.134-0.199,0.211
			c-0.17,0.17-0.329,0.351-0.475,0.543c-0.911,1.212-1.702,2.349-2.412,3.474c-2.958,4.673-4.757,9.264-5.821,14.861l-0.062,0.316
			c-0.108,0.56-0.216,1.117-0.343,1.669c-0.278,1.22-0.07,2.46,0.521,3.49c-1.822,7.101-0.924,14.549,0.006,19.142
			c0.01,0.051,0.02,0.103,0.029,0.153c0.569,2.772,1.359,5.511,2.274,7.901c3.017,7.952,10.042,13.113,15.064,16.303
			c0.871,0.554,1.74,1.116,2.612,1.68c0.013,0.009,0.025,0.018,0.037,0.025c-0.484,1.223-0.92,2.447-1.306,3.67
			C27.737,91.461,25.952,92.313,24.158,93.35z"/>
		<path fill="#D4D4D4" d="M23.551,92.62c-3.28,1.901-6.175,4.057-9.097,6.311c-0.255,0.195-0.525,0.379-0.796,0.564
			c-1.271,0.869-3.001,2.064-4.116,4.174c-0.986,1.865-0.973,4.088,0.059,5.808c0.968,1.613,2.672,2.59,4.579,2.627
			c-1.146,1.549-2.183,3.319-2.743,5.373c-0.476,1.746-0.15,3.531,0.896,4.897c0.699,0.916,1.655,1.566,2.737,1.888
			c-2.501,7.137-2.508,15.024,0.021,21.85c0.781,2.104,2.73,3.46,4.964,3.46c1.285,0,2.562-0.479,3.6-1.273
			c0.769,1.407,1.636,2.719,2.598,3.921c5.613,7.023,14.011,9.625,21.42,11.919c1.586,0.493,3.084,0.957,4.542,1.455
			c3.006,1.03,6.102,1.785,9.096,2.515c1.846,0.45,3.59,0.875,5.299,1.356c5.758,1.622,10.549,2.794,15.081,3.688
			c7.073,1.396,15.396,2.911,23.745,3.646c0.947,0.375,1.88,0.736,2.786,1.087l1.643,0.638c5.339,2.078,11.721,3.133,18.969,3.133
			c1.487,0,3.023-0.046,4.566-0.137c1.543,0.091,3.078,0.137,4.566,0.137c7.249,0,13.632-1.055,18.981-3.137l1.751-0.679
			c0.87-0.337,1.764-0.683,2.669-1.042c8.353-0.735,16.673-2.249,23.748-3.646c4.53-0.896,9.322-2.067,15.081-3.688
			c1.709-0.481,3.454-0.907,5.303-1.357c2.991-0.729,6.083-1.483,9.089-2.514c1.459-0.498,2.959-0.964,4.547-1.455
			c7.408-2.296,15.805-4.896,21.423-11.926c0.957-1.2,1.821-2.506,2.586-3.908c1.035,0.787,2.31,1.268,3.602,1.268
			c2.24,0,4.188-1.368,4.961-3.463c2.517-6.819,2.527-14.7,0.023-21.847c1.091-0.323,2.051-0.978,2.751-1.9
			c1.044-1.376,1.356-3.165,0.882-4.886c-0.566-2.051-1.595-3.823-2.739-5.372c1.903-0.039,3.604-1.013,4.57-2.619
			c1.032-1.715,1.053-3.937,0.086-5.771c-0.207-0.391-0.45-0.77-0.729-1.156c-0.081-0.112-0.164-0.22-0.252-0.326
			c-1.031-1.248-2.195-2.067-3.147-2.726c-0.271-0.187-0.541-0.37-0.82-0.585c-2.902-2.237-5.789-4.389-9.086-6.302
			c-1.781-1.03-3.568-1.883-5.165-2.583c-0.652-2.073-1.444-4.139-2.37-6.181c4.877-3.227,11.046-8.179,13.826-15.496
			c0.27-0.71,0.527-1.459,0.769-2.202l0.155-0.5c0.2-0.643,0.393-1.302,0.571-1.967l0.124-0.467c0.208-0.801,0.405-1.617,0.59-2.485
			c0.8-3.789,2.013-11.831,0.087-19.52c0.43-0.723,0.675-1.566,0.675-2.469c0-0.513-0.079-1.007-0.227-1.47
			c-0.107-0.502-0.208-1.017-0.315-1.571c-1.086-5.619-2.866-10.215-5.823-14.877c-0.678-1.076-1.468-2.213-2.41-3.473
			c-0.142-0.188-0.296-0.366-0.463-0.532c-0.081-0.089-0.164-0.177-0.238-0.251c-1.728-1.742-3.818-3.206-6.213-4.351
			c-0.417-0.199-0.859-0.339-1.316-0.411l-0.289-0.048c-1.446-0.234-2.942-0.478-4.476-0.677c-1.295-0.165-2.67-0.25-4.089-0.25
			c-3.49,0-6.868,0.497-9.71,0.981c-6.568,1.118-13.129,3.542-19.572,7.249l-0.163,0.091c-1.255,0.731-2.289,1.364-3.255,1.994
			c-1.195,0.781-2.418,1.647-3.83,2.715c-0.073,0.05-0.146,0.102-0.217,0.156l-0.313,0.246c-0.269,0.207-0.538,0.415-0.806,0.627
			c-4.293-2.082-9.776-4.209-15.284-4.682c-0.073-0.006-0.143-0.012-0.214-0.02c-0.868-2.104-3.026-3.605-5.279-3.66
			c-0.891-0.024-1.778-0.07-2.666-0.114c-2.202-0.11-4.651-0.203-6.736-0.058c0.144-0.838,0.184-1.722,0.054-2.639
			c-0.385-2.714-2.689-4.684-5.467-4.684c-0.943,0-1.879,0.238-2.686,0.677c-0.628,0.339-1.244,0.706-1.854,1.104
			c-0.993-1.031-2.387-1.653-3.922-1.653c-0.936,0-1.865,0.239-2.702,0.707c-0.854,0.478-1.68,0.979-2.485,1.498
			c-0.107-0.186-0.226-0.364-0.355-0.537c-1.294-1.724-3.467-2.543-5.676-2.084c-4.305,0.897-8.194,3.58-11.228,6.654
			c-0.327-0.283-0.647-0.549-0.959-0.805c-0.761-0.63-1.481-1.225-1.842-1.739c-0.985-1.402-2.578-2.246-4.269-2.246
			c-2.953,0-5.457,2.526-5.445,5.545c0,0.119,0.003,0.238,0.006,0.358c-1.259-0.161-2.596-0.239-4.089-0.239
			c-1.444,0-2.852,0.072-4.213,0.141c-0.888,0.044-1.778,0.09-2.664,0.114c-2.263,0.054-4.422,1.555-5.289,3.66
			c-0.072,0.008-0.144,0.014-0.217,0.02c-6.816,0.584-13.576,3.64-18.313,6.236c-2.391-2.011-4.729-3.758-7.09-5.298
			c-0.953-0.624-2.009-1.271-3.247-1.991l-0.577-0.324c-0.972-0.553-1.978-1.071-2.97-1.592c-0.085-0.044-0.166-0.091-0.251-0.132
			c-0.069-0.034-0.141-0.068-0.212-0.099c-5.174-2.554-10.465-4.302-15.725-5.197c-2.843-0.484-6.22-0.981-9.714-0.981
			c-1.418,0-2.794,0.085-4.101,0.251c-1.459,0.189-2.897,0.422-4.289,0.646l-0.466,0.075c-0.461,0.073-0.91,0.214-1.33,0.416
			c-2.377,1.143-4.479,2.587-6.219,4.367c-0.066,0.067-0.127,0.135-0.198,0.212c-0.172,0.169-0.332,0.35-0.476,0.543
			c-0.909,1.214-1.701,2.348-2.413,3.473c-2.958,4.673-4.756,9.264-5.821,14.861l-0.063,0.317c-0.107,0.559-0.215,1.116-0.341,1.669
			c-0.28,1.219-0.072,2.459,0.52,3.489c-1.821,7.101-0.925,14.549,0.008,19.143c0.008,0.051,0.018,0.103,0.028,0.153
			c0.57,2.771,1.359,5.51,2.275,7.9C15.331,76.31,22.356,81.47,27.379,84.66c0.869,0.554,1.749,1.103,2.611,1.679
			c0.012,0.009,0.025,0.018,0.039,0.025c-0.485,1.224-0.923,2.447-1.308,3.67C27.131,90.732,25.345,91.585,23.551,92.62z"/>
		<path fill="#C5C5C5" d="M22.943,91.893c-3.279,1.901-6.174,4.057-9.096,6.311c-0.255,0.195-0.524,0.379-0.796,0.564
			c-1.271,0.869-3.002,2.063-4.116,4.172c-0.987,1.868-0.973,4.088,0.059,5.81c0.967,1.612,2.671,2.589,4.579,2.626
			c-1.146,1.549-2.183,3.319-2.743,5.373c-0.476,1.745-0.15,3.531,0.896,4.897c0.698,0.917,1.654,1.567,2.737,1.887
			c-2.502,7.139-2.508,15.025,0.02,21.852c0.782,2.102,2.73,3.46,4.964,3.46c1.286,0,2.563-0.479,3.602-1.273
			c0.767,1.406,1.636,2.717,2.596,3.921c5.615,7.023,14.012,9.623,21.42,11.92c1.587,0.491,3.086,0.954,4.542,1.453
			c3.006,1.031,6.103,1.786,9.096,2.516c1.847,0.45,3.59,0.875,5.299,1.356c5.758,1.622,10.55,2.794,15.081,3.688
			c7.074,1.395,15.396,2.911,23.746,3.646c0.947,0.375,1.879,0.735,2.786,1.087l1.643,0.638c5.339,2.077,11.72,3.131,18.969,3.131
			c1.488,0,3.023-0.046,4.565-0.135c1.544,0.089,3.079,0.135,4.567,0.135c7.249,0,13.631-1.054,18.981-3.135l1.751-0.68
			c0.869-0.337,1.764-0.684,2.669-1.041c8.352-0.735,16.672-2.251,23.747-3.646c4.531-0.896,9.322-2.068,15.083-3.688
			c1.708-0.482,3.452-0.907,5.302-1.358c2.99-0.729,6.083-1.482,9.088-2.513c1.461-0.5,2.959-0.964,4.547-1.456
			c7.409-2.295,15.807-4.896,21.423-11.925c0.957-1.201,1.821-2.507,2.587-3.908c1.034,0.786,2.309,1.268,3.601,1.268
			c2.242,0,4.188-1.368,4.962-3.463c2.517-6.818,2.526-14.701,0.023-21.847c1.09-0.323,2.052-0.979,2.75-1.901
			c1.044-1.376,1.357-3.164,0.883-4.885c-0.567-2.052-1.595-3.824-2.739-5.373c1.903-0.038,3.604-1.011,4.571-2.619
			c1.031-1.715,1.047-3.935,0.084-5.77c-0.207-0.393-0.446-0.771-0.727-1.156c-0.082-0.112-0.166-0.221-0.253-0.327
			c-1.028-1.25-2.194-2.069-3.146-2.726c-0.271-0.187-0.541-0.37-0.82-0.586c-2.899-2.239-5.79-4.388-9.087-6.301
			c-1.78-1.029-3.569-1.883-5.166-2.582c-0.651-2.075-1.443-4.14-2.37-6.181c4.879-3.228,11.046-8.179,13.826-15.496
			c0.271-0.71,0.528-1.459,0.77-2.204l0.155-0.499c0.2-0.642,0.392-1.301,0.571-1.966l0.124-0.467
			c0.208-0.801,0.405-1.617,0.589-2.487c0.8-3.789,2.015-11.83,0.087-19.518c0.43-0.723,0.675-1.568,0.675-2.469
			c0-0.513-0.079-1.008-0.226-1.47c-0.107-0.502-0.209-1.018-0.316-1.572c-1.085-5.62-2.866-10.214-5.821-14.877
			c-0.68-1.076-1.469-2.212-2.411-3.472c-0.142-0.188-0.297-0.366-0.463-0.532c-0.082-0.089-0.165-0.178-0.239-0.251
			c-1.731-1.739-3.818-3.207-6.212-4.351c-0.417-0.2-0.859-0.339-1.316-0.413l-0.288-0.046c-1.447-0.234-2.943-0.48-4.478-0.678
			c-1.295-0.167-2.67-0.249-4.088-0.249c-3.49,0-6.868,0.497-9.711,0.981c-6.568,1.118-13.129,3.542-19.57,7.248l-0.165,0.092
			c-1.255,0.729-2.289,1.362-3.253,1.993c-1.196,0.782-2.42,1.648-3.832,2.716c-0.073,0.049-0.146,0.102-0.216,0.154l-0.313,0.246
			c-0.269,0.209-0.538,0.417-0.806,0.628c-4.293-2.083-9.784-4.135-15.285-4.681c-0.071-0.007-0.143-0.013-0.214-0.02
			c-0.868-2.104-3.026-3.605-5.278-3.661c-0.891-0.023-1.779-0.069-2.666-0.113c-2.203-0.11-4.652-0.203-6.736-0.058
			c0.143-0.839,0.182-1.722,0.053-2.641c-0.39-2.713-2.688-4.682-5.466-4.682c-0.943,0-1.879,0.24-2.687,0.677
			c-0.626,0.339-1.244,0.705-1.853,1.104c-0.992-1.033-2.386-1.654-3.923-1.654c-0.935,0-1.864,0.24-2.702,0.708
			c-0.854,0.477-1.679,0.979-2.483,1.497c-0.108-0.185-0.228-0.363-0.356-0.536c-1.289-1.727-3.466-2.544-5.675-2.085
			c-4.306,0.898-8.196,3.579-11.229,6.655c-0.327-0.283-0.648-0.55-0.958-0.806c-0.762-0.63-1.482-1.224-1.844-1.738
			c-0.987-1.403-2.575-2.246-4.268-2.246c-2.952,0-5.458,2.526-5.445,5.545c0,0.119,0.003,0.238,0.006,0.357
			c-1.259-0.161-2.596-0.238-4.09-0.238c-1.442,0-2.852,0.071-4.213,0.141c-0.887,0.044-1.777,0.09-2.663,0.113
			c-2.263,0.055-4.422,1.556-5.289,3.661c-0.073,0.007-0.145,0.013-0.217,0.02c-6.809,0.676-13.577,3.64-18.314,6.236
			c-2.39-2.011-4.729-3.758-7.089-5.298c-0.953-0.623-2.009-1.271-3.248-1.991l-0.574-0.325c-0.974-0.554-1.979-1.071-2.972-1.592
			c-0.085-0.045-0.167-0.09-0.25-0.131c-0.07-0.036-0.143-0.068-0.213-0.1c-5.175-2.553-10.465-4.301-15.725-5.196
			c-2.844-0.484-6.22-0.981-9.715-0.981c-1.417,0-2.793,0.085-4.101,0.252c-1.459,0.188-2.896,0.421-4.287,0.646l-0.468,0.075
			c-0.46,0.073-0.908,0.214-1.328,0.416c-2.379,1.142-4.467,2.598-6.219,4.367c-0.066,0.067-0.127,0.134-0.199,0.211
			c-0.173,0.17-0.331,0.35-0.476,0.543c-0.911,1.211-1.701,2.349-2.414,3.474c-2.957,4.673-4.755,9.264-5.82,14.86l-0.061,0.316
			c-0.11,0.561-0.218,1.117-0.344,1.67c-0.279,1.219-0.07,2.46,0.521,3.49c-1.821,7.101-0.925,14.549,0.008,19.142
			c0.007,0.051,0.017,0.102,0.028,0.153c0.586,2.769,1.358,5.511,2.275,7.901c3.015,7.951,10.041,13.112,15.063,16.304
			c0.87,0.553,1.739,1.115,2.61,1.679c0.014,0.009,0.025,0.018,0.04,0.025c-0.486,1.222-0.923,2.447-1.308,3.669
			C26.524,90.004,24.737,90.855,22.943,91.893z"/>
		<path fill="#B7B7B7" d="M22.337,91.165c-3.279,1.9-6.171,4.058-9.096,6.31c-0.255,0.196-0.525,0.379-0.797,0.564
			c-1.27,0.868-3,2.064-4.115,4.173c-0.987,1.866-0.973,4.088,0.059,5.809c0.967,1.612,2.671,2.588,4.578,2.628
			c-1.146,1.548-2.182,3.316-2.742,5.372c-0.476,1.745-0.149,3.53,0.895,4.897c0.699,0.916,1.655,1.566,2.738,1.888
			c-2.502,7.137-2.509,15.023,0.02,21.85c0.782,2.103,2.731,3.46,4.964,3.46c1.286,0,2.563-0.479,3.602-1.273
			c0.768,1.405,1.635,2.718,2.597,3.921c5.614,7.023,14.011,9.624,21.42,11.92c1.586,0.491,3.085,0.955,4.541,1.454
			c3.006,1.03,6.102,1.785,9.096,2.515c1.848,0.45,3.591,0.875,5.3,1.356c5.757,1.621,10.548,2.794,15.08,3.688
			c7.074,1.396,15.396,2.911,23.746,3.646c0.947,0.375,1.879,0.735,2.787,1.087l1.642,0.638c5.34,2.078,11.72,3.132,18.969,3.132
			c1.487,0,3.023-0.046,4.565-0.136c1.543,0.09,3.079,0.136,4.567,0.136c7.249,0,13.631-1.054,18.982-3.136l1.75-0.68
			c0.87-0.338,1.764-0.683,2.669-1.041c8.352-0.735,16.673-2.25,23.747-3.646c4.531-0.896,9.322-2.067,15.082-3.688
			c1.709-0.482,3.453-0.907,5.302-1.359c2.991-0.728,6.084-1.481,9.089-2.512c1.461-0.499,2.959-0.964,4.547-1.455
			c7.408-2.297,15.807-4.896,21.424-11.927c0.956-1.199,1.82-2.506,2.586-3.907c1.034,0.787,2.31,1.268,3.602,1.268
			c2.241,0,4.191-1.366,4.962-3.464c2.53-6.813,2.525-14.7,0.022-21.846c1.091-0.323,2.051-0.979,2.751-1.902
			c1.044-1.376,1.357-3.165,0.883-4.884c-0.566-2.053-1.596-3.823-2.74-5.371c1.902-0.04,3.604-1.013,4.57-2.62
			c1.031-1.715,1.051-3.938,0.085-5.771c-0.206-0.392-0.448-0.77-0.728-1.156c-0.08-0.112-0.165-0.221-0.253-0.328
			c-1.027-1.248-2.192-2.068-3.146-2.724c-0.271-0.188-0.541-0.371-0.819-0.586c-2.899-2.239-5.791-4.388-9.087-6.301
			c-1.78-1.031-3.568-1.884-5.166-2.583c-0.651-2.074-1.443-4.139-2.37-6.181c4.879-3.228,11.047-8.179,13.826-15.496
			c0.271-0.71,0.528-1.459,0.769-2.203l0.155-0.5c0.201-0.642,0.394-1.301,0.572-1.966l0.124-0.466
			c0.208-0.802,0.405-1.618,0.589-2.487c0.8-3.789,2.015-11.831,0.088-19.52c0.429-0.722,0.674-1.566,0.674-2.468
			c0-0.513-0.078-1.006-0.227-1.471c-0.106-0.501-0.208-1.016-0.315-1.572c-1.083-5.618-2.866-10.213-5.821-14.876
			c-0.679-1.076-1.469-2.212-2.412-3.472c-0.141-0.188-0.296-0.366-0.462-0.532c-0.082-0.089-0.165-0.177-0.239-0.251
			c-1.731-1.739-3.817-3.208-6.212-4.351c-0.417-0.2-0.86-0.339-1.316-0.412l-0.288-0.047c-1.447-0.234-2.944-0.478-4.477-0.677
			c-1.295-0.165-2.671-0.249-4.089-0.249c-3.49,0-6.867,0.496-9.71,0.98c-6.567,1.118-13.13,3.542-19.572,7.248l-0.163,0.092
			c-1.256,0.73-2.29,1.363-3.254,1.994c-1.196,0.781-2.42,1.647-3.832,2.715c-0.073,0.049-0.145,0.102-0.216,0.155l-0.313,0.246
			c-0.27,0.208-0.538,0.416-0.807,0.627c-4.292-2.082-9.78-4.168-15.284-4.68c-0.071-0.007-0.143-0.015-0.214-0.021
			c-0.867-2.104-3.026-3.605-5.279-3.662c-0.89-0.022-1.777-0.068-2.665-0.112c-2.202-0.11-4.652-0.203-6.737-0.057
			c0.145-0.839,0.184-1.723,0.054-2.641c-0.384-2.714-2.688-4.683-5.465-4.683c-0.945,0-1.88,0.238-2.687,0.677
			c-0.628,0.338-1.245,0.706-1.854,1.104c-0.992-1.032-2.386-1.654-3.921-1.654c-0.937,0-1.864,0.242-2.703,0.708
			c-0.853,0.479-1.68,0.979-2.484,1.498c-0.107-0.186-0.227-0.364-0.355-0.536c-1.295-1.725-3.467-2.545-5.676-2.086
			c-4.306,0.898-8.195,3.58-11.229,6.655c-0.326-0.283-0.646-0.55-0.957-0.806c-0.762-0.631-1.482-1.224-1.844-1.738
			c-0.985-1.403-2.576-2.247-4.269-2.247c-2.951,0-5.457,2.528-5.444,5.546c0,0.119,0.003,0.238,0.006,0.357
			c-1.259-0.161-2.596-0.238-4.09-0.238c-1.443,0-2.852,0.071-4.213,0.141c-0.887,0.044-1.777,0.09-2.663,0.112
			c-2.263,0.056-4.422,1.557-5.29,3.662c-0.071,0.006-0.144,0.014-0.216,0.021c-6.813,0.634-13.576,3.639-18.314,6.235
			c-2.389-2.011-4.729-3.758-7.089-5.298c-0.954-0.623-2.009-1.271-3.247-1.991l-0.576-0.325c-0.973-0.553-1.979-1.07-2.971-1.591
			c-0.084-0.045-0.167-0.091-0.25-0.132c-0.071-0.035-0.143-0.068-0.213-0.1c-5.174-2.553-10.465-4.301-15.725-5.196
			c-2.843-0.484-6.22-0.98-9.715-0.98c-1.417,0-2.792,0.084-4.101,0.251c-1.459,0.189-2.896,0.421-4.288,0.646l-0.466,0.075
			c-0.461,0.073-0.91,0.214-1.33,0.416c-2.378,1.142-4.466,2.599-6.218,4.367c-0.066,0.067-0.128,0.134-0.2,0.212
			c-0.172,0.169-0.33,0.35-0.476,0.541c-0.911,1.213-1.7,2.35-2.412,3.475c-2.959,4.673-4.756,9.264-5.82,14.861l-0.063,0.316
			c-0.109,0.56-0.216,1.117-0.342,1.669c-0.28,1.22-0.071,2.46,0.52,3.49c-1.821,7.101-0.925,14.55,0.007,19.142
			c0.009,0.051,0.018,0.103,0.028,0.153c0.57,2.771,1.359,5.511,2.276,7.901c3.015,7.952,10.04,13.113,15.063,16.304
			c0.87,0.553,1.753,1.096,2.611,1.679c0.014,0.009,0.025,0.018,0.04,0.025c-0.486,1.223-0.923,2.447-1.309,3.67
			C25.918,89.275,24.131,90.128,22.337,91.165z"/>
		<path fill="#A8A8A8" d="M21.73,90.436c-3.28,1.901-6.172,4.059-9.097,6.311c-0.254,0.196-0.525,0.379-0.796,0.564
			c-1.27,0.869-3.002,2.064-4.116,4.172c-0.987,1.868-0.973,4.088,0.059,5.809c0.968,1.612,2.672,2.589,4.578,2.628
			c-1.145,1.548-2.182,3.319-2.742,5.372c-0.475,1.745-0.149,3.532,0.896,4.897c0.699,0.917,1.654,1.567,2.737,1.888
			c-2.501,7.139-2.509,15.023,0.021,21.852c0.782,2.101,2.73,3.459,4.963,3.459c1.285,0,2.563-0.479,3.601-1.273
			c0.769,1.406,1.637,2.717,2.598,3.92c5.613,7.023,14.012,9.624,21.42,11.921c1.586,0.49,3.086,0.954,4.543,1.453
			c3.004,1.03,6.1,1.786,9.095,2.516c1.846,0.449,3.59,0.875,5.299,1.356c5.758,1.622,10.549,2.795,15.08,3.688
			c7.074,1.395,15.397,2.91,23.746,3.646c0.947,0.375,1.881,0.734,2.786,1.087l1.643,0.637c5.339,2.078,11.721,3.132,18.97,3.132
			c1.486,0,3.021-0.046,4.565-0.135c1.543,0.089,3.078,0.135,4.566,0.135c7.248,0,13.631-1.054,18.981-3.136l1.75-0.68
			c0.871-0.337,1.765-0.683,2.67-1.04c8.353-0.735,16.673-2.251,23.748-3.646c4.529-0.896,9.322-2.068,15.081-3.688
			c1.709-0.483,3.454-0.907,5.302-1.358c2.991-0.729,6.084-1.483,9.09-2.512c1.459-0.501,2.96-0.965,4.546-1.457
			c7.409-2.295,15.808-4.896,21.424-11.925c0.958-1.201,1.821-2.508,2.586-3.908c1.034,0.786,2.311,1.268,3.603,1.268
			c2.241,0,4.186-1.368,4.96-3.463c2.517-6.818,2.527-14.702,0.023-21.846c1.09-0.324,2.051-0.979,2.751-1.903
			c1.044-1.376,1.357-3.163,0.882-4.884c-0.566-2.052-1.596-3.824-2.739-5.372c1.902-0.04,3.605-1.012,4.57-2.62
			c1.031-1.715,1.053-3.937,0.086-5.77c-0.207-0.393-0.447-0.771-0.728-1.157c-0.081-0.111-0.166-0.221-0.254-0.326
			c-1.033-1.244-2.192-2.07-3.146-2.726c-0.269-0.186-0.541-0.371-0.82-0.586c-2.899-2.236-5.79-4.388-9.086-6.301
			c-1.78-1.029-3.568-1.884-5.166-2.582c-0.65-2.075-1.442-4.14-2.369-6.181c4.879-3.229,11.046-8.179,13.826-15.497
			c0.27-0.709,0.527-1.459,0.768-2.203l0.155-0.498c0.201-0.643,0.394-1.302,0.572-1.967l0.124-0.466
			c0.209-0.802,0.404-1.618,0.591-2.488c0.798-3.789,2.014-11.831,0.086-19.517c0.429-0.725,0.675-1.569,0.675-2.471
			c0-0.512-0.079-1.006-0.227-1.469c-0.106-0.502-0.208-1.018-0.314-1.572c-1.081-5.621-2.867-10.213-5.824-14.878
			c-0.679-1.076-1.468-2.212-2.411-3.472c-0.141-0.188-0.295-0.366-0.462-0.532c-0.081-0.088-0.165-0.177-0.238-0.251
			c-1.732-1.739-3.819-3.205-6.213-4.35c-0.417-0.2-0.859-0.339-1.315-0.413l-0.289-0.046c-1.447-0.235-2.944-0.478-4.477-0.678
			c-1.295-0.165-2.671-0.248-4.089-0.248c-3.49,0-6.868,0.495-9.71,0.981c-6.568,1.116-13.129,3.54-19.57,7.247l-0.165,0.091
			c-1.254,0.73-2.29,1.363-3.253,1.994c-1.197,0.782-2.419,1.648-3.833,2.715c-0.072,0.049-0.145,0.103-0.216,0.155l-0.313,0.246
			c-0.269,0.209-0.537,0.417-0.806,0.627c-4.292-2.082-9.784-4.135-15.284-4.679c-0.072-0.008-0.144-0.014-0.214-0.021
			c-0.868-2.104-3.027-3.605-5.279-3.66c-0.891-0.024-1.778-0.07-2.666-0.113c-2.201-0.11-4.651-0.204-6.737-0.058
			c0.145-0.839,0.186-1.722,0.056-2.641c-0.383-2.714-2.69-4.682-5.467-4.682c-0.944,0-1.881,0.237-2.687,0.676
			c-0.627,0.338-1.245,0.706-1.854,1.104c-0.993-1.032-2.387-1.652-3.922-1.652c-0.937,0-1.864,0.241-2.702,0.706
			c-0.854,0.479-1.68,0.979-2.485,1.498c-0.107-0.185-0.226-0.364-0.355-0.536c-1.295-1.725-3.467-2.544-5.676-2.085
			c-4.306,0.898-8.194,3.579-11.228,6.654c-0.326-0.282-0.648-0.549-0.958-0.806c-0.762-0.629-1.482-1.224-1.844-1.737
			c-0.984-1.404-2.575-2.246-4.268-2.246c-2.952,0-5.458,2.527-5.445,5.545c0.001,0.118,0.003,0.238,0.006,0.356
			c-1.259-0.16-2.596-0.238-4.09-0.238c-1.443,0-2.851,0.071-4.211,0.142c-0.889,0.043-1.779,0.089-2.665,0.113
			c-2.262,0.055-4.421,1.556-5.289,3.66c-0.071,0.008-0.144,0.014-0.218,0.021c-6.809,0.666-13.576,3.639-18.313,6.234
			c-2.39-2.01-4.729-3.757-7.088-5.297c-0.955-0.623-2.009-1.271-3.248-1.991l-0.575-0.325c-0.974-0.554-1.979-1.071-2.973-1.592
			c-0.084-0.045-0.165-0.09-0.25-0.132c-0.07-0.035-0.141-0.067-0.212-0.1c-5.174-2.552-10.465-4.301-15.725-5.194
			c-2.843-0.486-6.22-0.981-9.714-0.981c-1.419,0-2.794,0.083-4.102,0.25c-1.458,0.189-2.896,0.421-4.287,0.646l-0.467,0.076
			c-0.461,0.073-0.908,0.214-1.33,0.415c-2.378,1.143-4.472,2.593-6.219,4.367c-0.065,0.067-0.127,0.134-0.199,0.212
			c-0.171,0.17-0.329,0.351-0.476,0.543c-0.911,1.211-1.701,2.348-2.412,3.473c-2.959,4.674-4.756,9.265-5.821,14.861l-0.061,0.316
			c-0.11,0.561-0.217,1.117-0.343,1.669c-0.279,1.22-0.071,2.461,0.519,3.491C6.362,46.077,7.26,53.524,8.19,58.116
			c0.009,0.052,0.019,0.103,0.028,0.153c0.57,2.773,1.36,5.512,2.275,7.902c3.017,7.951,10.041,13.112,15.063,16.303
			c0.872,0.553,1.733,1.125,2.612,1.681c0.013,0.007,0.025,0.017,0.038,0.024c-0.484,1.222-0.922,2.447-1.307,3.67
			C25.311,88.546,23.524,89.398,21.73,90.436z"/>
		<path fill="#9A9A9A" d="M21.124,89.708c-3.281,1.9-6.175,4.055-9.097,6.309c-0.255,0.196-0.525,0.379-0.796,0.564
			c-1.271,0.869-3.001,2.065-4.116,4.173c-0.987,1.867-0.974,4.088,0.058,5.81c0.969,1.612,2.673,2.588,4.579,2.627
			c-1.145,1.549-2.182,3.318-2.743,5.373c-0.476,1.744-0.149,3.53,0.896,4.896c0.699,0.916,1.654,1.566,2.737,1.888
			c-2.502,7.138-2.508,15.024,0.021,21.851c0.781,2.102,2.73,3.459,4.963,3.459c1.286,0,2.562-0.479,3.6-1.273
			c0.77,1.406,1.637,2.718,2.599,3.922c5.612,7.023,14.01,9.623,21.42,11.919c1.585,0.492,3.084,0.955,4.542,1.455
			c3.006,1.03,6.101,1.784,9.096,2.514c1.846,0.451,3.589,0.875,5.298,1.356c5.759,1.622,10.549,2.795,15.08,3.688
			c7.075,1.396,15.397,2.912,23.747,3.646c0.946,0.375,1.88,0.737,2.786,1.087l1.643,0.639c5.339,2.077,11.72,3.131,18.968,3.131
			c1.487,0,3.023-0.046,4.567-0.136c1.543,0.09,3.077,0.136,4.565,0.136c7.249,0,13.632-1.054,18.981-3.135l1.751-0.68
			c0.87-0.337,1.765-0.684,2.67-1.042c8.352-0.735,16.672-2.25,23.748-3.646c4.528-0.896,9.321-2.067,15.08-3.688
			c1.709-0.481,3.455-0.907,5.303-1.358c2.992-0.728,6.084-1.481,9.09-2.512c1.459-0.5,2.959-0.965,4.547-1.456
			c7.408-2.296,15.805-4.896,21.423-11.926c0.956-1.2,1.82-2.506,2.585-3.908c1.034,0.787,2.31,1.268,3.602,1.268
			c2.241,0,4.188-1.368,4.961-3.463c2.516-6.818,2.528-14.7,0.023-21.846c1.092-0.324,2.052-0.978,2.751-1.902
			c1.045-1.376,1.357-3.165,0.883-4.884c-0.566-2.052-1.595-3.823-2.74-5.372c1.903-0.039,3.604-1.013,4.57-2.619
			c1.033-1.716,1.053-3.938,0.086-5.771c-0.206-0.392-0.449-0.769-0.728-1.155c-0.082-0.112-0.164-0.221-0.252-0.328
			c-1.028-1.249-2.196-2.066-3.147-2.724c-0.27-0.187-0.542-0.371-0.821-0.587c-2.907-2.229-5.789-4.388-9.086-6.301
			c-1.78-1.03-3.568-1.883-5.165-2.581c-0.651-2.076-1.443-4.14-2.369-6.183c4.877-3.226,11.046-8.179,13.826-15.495
			c0.27-0.71,0.526-1.459,0.768-2.204l0.154-0.499c0.202-0.643,0.395-1.302,0.573-1.967l0.123-0.466
			c0.209-0.802,0.405-1.618,0.591-2.487c0.799-3.789,2.013-11.83,0.087-19.518c0.429-0.723,0.675-1.568,0.675-2.469
			c0-0.514-0.079-1.007-0.227-1.471c-0.107-0.502-0.209-1.016-0.315-1.572c-1.085-5.619-2.866-10.213-5.824-14.876
			c-0.677-1.076-1.467-2.213-2.41-3.473c-0.141-0.188-0.296-0.365-0.463-0.532c-0.08-0.089-0.164-0.176-0.238-0.25
			c-1.737-1.733-3.817-3.207-6.212-4.352c-0.417-0.2-0.86-0.337-1.316-0.412l-0.289-0.047c-1.447-0.234-2.943-0.477-4.477-0.677
			c-1.294-0.164-2.669-0.249-4.088-0.249c-3.49,0-6.869,0.496-9.71,0.981c-6.568,1.117-13.129,3.542-19.572,7.247l-0.163,0.092
			c-1.255,0.73-2.29,1.363-3.255,1.994c-1.195,0.781-2.418,1.647-3.83,2.716c-0.074,0.049-0.146,0.101-0.217,0.154l-0.313,0.246
			c-0.27,0.208-0.538,0.416-0.806,0.628c-4.293-2.083-9.78-4.168-15.285-4.681c-0.072-0.007-0.143-0.014-0.213-0.02
			c-0.868-2.104-3.027-3.604-5.279-3.662c-0.891-0.022-1.778-0.068-2.666-0.113c-2.203-0.11-4.651-0.203-6.736-0.057
			c0.144-0.839,0.182-1.723,0.053-2.641c-0.39-2.713-2.688-4.682-5.466-4.682c-0.943,0-1.879,0.238-2.687,0.676
			c-0.627,0.338-1.244,0.706-1.853,1.104c-0.994-1.033-2.388-1.654-3.922-1.654c-0.936,0-1.866,0.239-2.703,0.707
			c-0.853,0.478-1.679,0.979-2.484,1.498c-0.107-0.185-0.227-0.363-0.355-0.536c-1.294-1.724-3.468-2.545-5.677-2.086
			c-4.304,0.898-8.193,3.58-11.227,6.656c-0.327-0.284-0.649-0.55-0.959-0.805c-0.763-0.63-1.481-1.226-1.843-1.739
			c-0.986-1.403-2.577-2.247-4.269-2.247c-2.952,0-5.456,2.527-5.444,5.545c0,0.119,0.002,0.239,0.005,0.358
			c-1.258-0.162-2.596-0.239-4.088-0.239c-1.444,0-2.852,0.072-4.214,0.141c-0.887,0.045-1.777,0.091-2.664,0.113
			c-2.262,0.056-4.422,1.556-5.289,3.662c-0.071,0.006-0.144,0.013-0.216,0.02c-6.813,0.635-13.576,3.639-18.314,6.236
			c-2.39-2.012-4.729-3.759-7.09-5.299c-0.954-0.623-2.008-1.27-3.247-1.991l-0.576-0.325c-0.972-0.553-1.979-1.07-2.971-1.591
			c-0.084-0.045-0.166-0.09-0.25-0.132c-0.069-0.035-0.142-0.068-0.212-0.099c-5.174-2.554-10.466-4.301-15.726-5.196
			c-2.843-0.485-6.219-0.981-9.713-0.981c-1.419,0-2.795,0.085-4.101,0.252c-1.459,0.188-2.897,0.42-4.29,0.646l-0.466,0.074
			c-0.461,0.074-0.909,0.214-1.33,0.417c-2.376,1.143-4.471,2.592-6.218,4.366c-0.066,0.068-0.127,0.135-0.199,0.212
			c-0.172,0.169-0.331,0.351-0.475,0.543c-0.912,1.211-1.702,2.349-2.414,3.475c-2.957,4.672-4.755,9.262-5.82,14.859l-0.063,0.316
			c-0.107,0.56-0.216,1.117-0.341,1.67c-0.28,1.219-0.072,2.459,0.519,3.489c-1.82,7.102-0.924,14.551,0.008,19.143
			c0.008,0.051,0.019,0.102,0.028,0.153c0.563,2.774,1.358,5.51,2.275,7.9c3.017,7.952,10.041,13.113,15.063,16.305
			c0.87,0.553,1.765,1.081,2.612,1.679c0.012,0.008,0.025,0.017,0.038,0.024c-0.484,1.223-0.922,2.447-1.308,3.671
			C24.704,87.819,22.917,88.671,21.124,89.708z"/>
		<path fill="#8B8B8B" d="M20.517,88.979c-3.279,1.901-6.167,4.064-9.096,6.311c-0.255,0.196-0.525,0.378-0.797,0.564
			c-1.271,0.869-3.002,2.064-4.116,4.172c-0.986,1.867-0.973,4.088,0.06,5.809c0.967,1.612,2.671,2.589,4.578,2.628
			c-1.146,1.548-2.182,3.318-2.743,5.373c-0.475,1.744-0.149,3.53,0.896,4.897c0.699,0.916,1.655,1.566,2.737,1.887
			c-2.501,7.139-2.508,15.023,0.021,21.852c0.782,2.101,2.73,3.459,4.964,3.459c1.285,0,2.562-0.479,3.601-1.273
			c0.768,1.405,1.636,2.717,2.597,3.92c5.614,7.023,14.012,9.625,21.42,11.921c1.587,0.49,3.085,0.955,4.542,1.453
			c3.006,1.03,6.102,1.785,9.096,2.515c1.847,0.45,3.59,0.875,5.299,1.356c5.758,1.622,10.549,2.795,15.081,3.688
			c7.074,1.396,15.396,2.911,23.746,3.646c0.947,0.375,1.879,0.736,2.785,1.087l1.643,0.638c5.339,2.078,11.721,3.132,18.97,3.132
			c1.486,0,3.022-0.045,4.565-0.135c1.543,0.09,3.078,0.135,4.566,0.135c7.249,0,13.632-1.054,18.981-3.136l1.751-0.68
			c0.87-0.336,1.765-0.682,2.669-1.041c8.353-0.735,16.673-2.25,23.748-3.646c4.53-0.896,9.322-2.067,15.082-3.688
			c1.708-0.482,3.453-0.906,5.302-1.358c2.991-0.729,6.084-1.482,9.089-2.512c1.46-0.499,2.959-0.965,4.547-1.456
			c7.408-2.295,15.806-4.896,21.423-11.925c0.957-1.2,1.821-2.508,2.586-3.909c1.035,0.787,2.31,1.269,3.602,1.269
			c2.241,0,4.188-1.369,4.961-3.464c2.517-6.817,2.527-14.701,0.023-21.846c1.091-0.323,2.051-0.979,2.751-1.902
			c1.044-1.375,1.356-3.164,0.882-4.883c-0.566-2.053-1.595-3.825-2.739-5.373c1.903-0.04,3.604-1.013,4.57-2.62
			c1.032-1.715,1.052-3.938,0.086-5.771c-0.207-0.392-0.448-0.77-0.728-1.156c-0.081-0.111-0.165-0.221-0.253-0.327
			c-1.031-1.246-2.193-2.069-3.147-2.725c-0.27-0.187-0.54-0.371-0.82-0.586c-2.9-2.236-5.789-4.388-9.086-6.301
			c-1.779-1.03-3.568-1.883-5.165-2.582c-0.652-2.075-1.444-4.14-2.37-6.182c4.878-3.227,11.046-8.179,13.826-15.496
			c0.27-0.708,0.527-1.459,0.769-2.203l0.155-0.499c0.2-0.643,0.393-1.301,0.572-1.966l0.124-0.467
			c0.208-0.802,0.404-1.617,0.589-2.486c0.8-3.789,2.014-11.832,0.087-19.519c0.43-0.723,0.675-1.568,0.675-2.47
			c0-0.513-0.079-1.006-0.227-1.47c-0.107-0.502-0.208-1.016-0.315-1.572c-1.085-5.619-2.866-10.213-5.823-14.877
			c-0.678-1.076-1.467-2.212-2.41-3.472c-0.142-0.188-0.296-0.366-0.463-0.532c-0.081-0.088-0.164-0.177-0.238-0.251
			c-1.731-1.739-3.818-3.206-6.212-4.351c-0.417-0.2-0.86-0.338-1.317-0.412l-0.287-0.047c-1.448-0.234-2.944-0.477-4.478-0.677
			c-1.295-0.165-2.67-0.248-4.088-0.248c-3.491,0-6.869,0.495-9.711,0.981c-6.568,1.116-13.129,3.541-19.571,7.246l-0.164,0.092
			c-1.255,0.73-2.289,1.363-3.254,1.994c-1.196,0.781-2.419,1.648-3.831,2.715c-0.073,0.05-0.146,0.103-0.216,0.155l-0.313,0.246
			c-0.27,0.208-0.538,0.416-0.807,0.628c-4.292-2.082-9.783-4.135-15.284-4.68c-0.072-0.008-0.143-0.015-0.214-0.021
			c-0.868-2.104-3.026-3.604-5.279-3.661c-0.891-0.023-1.778-0.068-2.666-0.112c-2.202-0.111-4.651-0.204-6.736-0.058
			c0.144-0.839,0.184-1.723,0.054-2.641c-0.385-2.714-2.689-4.682-5.466-4.682c-0.944,0-1.88,0.237-2.687,0.676
			c-0.627,0.339-1.244,0.706-1.854,1.104c-0.993-1.032-2.386-1.653-3.922-1.653c-0.936,0-1.864,0.241-2.702,0.707
			c-0.853,0.479-1.68,0.979-2.485,1.498c-0.106-0.185-0.226-0.364-0.354-0.536c-1.295-1.725-3.467-2.545-5.677-2.086
			c-4.305,0.899-8.194,3.58-11.228,6.655c-0.327-0.283-0.647-0.549-0.958-0.805c-0.761-0.63-1.482-1.225-1.843-1.738
			c-0.985-1.404-2.577-2.247-4.269-2.247c-2.952,0-5.457,2.527-5.445,5.545c0,0.119,0.003,0.24,0.006,0.357
			c-1.259-0.161-2.596-0.238-4.089-0.238c-1.444,0-2.852,0.071-4.213,0.142c-0.888,0.044-1.778,0.089-2.663,0.112
			c-2.263,0.057-4.422,1.557-5.29,3.661c-0.072,0.007-0.144,0.014-0.217,0.021c-6.808,0.671-13.576,3.639-18.313,6.234
			c-2.39-2.011-4.729-3.757-7.09-5.297c-0.953-0.623-2.008-1.271-3.247-1.992l-0.576-0.325c-0.973-0.553-1.979-1.07-2.971-1.591
			c-0.085-0.045-0.166-0.09-0.25-0.132c-0.07-0.035-0.142-0.067-0.213-0.1c-5.174-2.552-10.464-4.301-15.725-5.194
			c-2.843-0.486-6.22-0.981-9.714-0.981c-1.418,0-2.794,0.083-4.101,0.25c-1.459,0.189-2.896,0.421-4.288,0.646L23.311,8.17
			c-0.461,0.074-0.909,0.215-1.33,0.416c-2.377,1.143-4.472,2.593-6.219,4.368c-0.065,0.066-0.127,0.133-0.198,0.211
			c-0.172,0.169-0.331,0.351-0.476,0.543c-0.911,1.211-1.701,2.348-2.413,3.474c-2.958,4.673-4.755,9.263-5.82,14.86l-0.063,0.316
			c-0.108,0.56-0.216,1.118-0.342,1.669c-0.279,1.22-0.07,2.46,0.52,3.492c-1.82,7.1-0.924,14.548,0.008,19.14
			c0.008,0.052,0.018,0.103,0.028,0.153c0.57,2.773,1.359,5.511,2.275,7.902c3.016,7.951,10.041,13.112,15.063,16.303
			c0.87,0.553,1.739,1.116,2.611,1.68c0.013,0.008,0.025,0.017,0.039,0.025c-0.485,1.222-0.922,2.446-1.308,3.67
			C24.097,87.09,22.311,87.942,20.517,88.979z"/>
		<path fill="#7D7D7D" d="M19.91,88.25c-3.28,1.901-6.172,4.058-9.097,6.31c-0.255,0.196-0.525,0.379-0.797,0.564
			c-1.27,0.87-3.002,2.065-4.115,4.173c-0.987,1.867-0.973,4.089,0.059,5.809c0.967,1.612,2.671,2.589,4.578,2.628
			c-1.146,1.548-2.182,3.318-2.741,5.373c-0.477,1.744-0.151,3.53,0.894,4.897c0.7,0.916,1.655,1.565,2.738,1.887
			c-2.501,7.138-2.509,15.023,0.021,21.851c0.781,2.102,2.73,3.459,4.963,3.459c1.285,0,2.563-0.479,3.601-1.272
			c0.768,1.405,1.637,2.717,2.598,3.92c5.613,7.023,14.011,9.625,21.419,11.92c1.587,0.491,3.086,0.956,4.542,1.454
			c3.006,1.03,6.102,1.785,9.096,2.515c1.847,0.45,3.591,0.875,5.299,1.356c5.758,1.622,10.549,2.795,15.082,3.688
			c7.073,1.396,15.396,2.911,23.745,3.646c0.947,0.375,1.879,0.736,2.786,1.088l1.643,0.637c5.338,2.079,11.72,3.132,18.969,3.132
			c1.487,0,3.022-0.045,4.566-0.136c1.542,0.091,3.079,0.136,4.566,0.136c7.248,0,13.632-1.053,18.98-3.136l1.751-0.68
			c0.871-0.336,1.765-0.682,2.669-1.041c8.353-0.735,16.673-2.25,23.748-3.646c4.53-0.896,9.322-2.067,15.082-3.688
			c1.709-0.481,3.454-0.907,5.302-1.358c2.992-0.729,6.084-1.482,9.089-2.512c1.46-0.499,2.959-0.965,4.548-1.456
			c7.408-2.295,15.806-4.896,21.423-11.925c0.956-1.2,1.82-2.508,2.586-3.909c1.035,0.787,2.309,1.268,3.602,1.268
			c2.242,0,4.187-1.367,4.96-3.463c2.518-6.818,2.528-14.701,0.024-21.846c1.09-0.324,2.052-0.979,2.751-1.902
			c1.043-1.375,1.357-3.164,0.882-4.884c-0.566-2.052-1.596-3.824-2.74-5.372c1.903-0.04,3.604-1.013,4.571-2.62
			c1.031-1.715,1.05-3.937,0.085-5.77c-0.207-0.393-0.447-0.771-0.727-1.157c-0.081-0.111-0.166-0.221-0.254-0.326
			c-1.03-1.248-2.193-2.07-3.146-2.726c-0.271-0.187-0.541-0.37-0.82-0.586c-2.901-2.236-5.79-4.388-9.087-6.301
			c-1.779-1.029-3.567-1.883-5.165-2.582c-0.651-2.075-1.443-4.14-2.37-6.182c4.88-3.227,11.046-8.179,13.826-15.496
			c0.271-0.709,0.527-1.459,0.769-2.203l0.155-0.499c0.201-0.643,0.394-1.302,0.572-1.967l0.124-0.466
			c0.208-0.802,0.404-1.618,0.589-2.486c0.8-3.789,2.015-11.832,0.088-19.519c0.429-0.723,0.674-1.568,0.674-2.47
			c0-0.513-0.078-1.006-0.226-1.469c-0.107-0.503-0.209-1.017-0.316-1.573c-1.084-5.619-2.866-10.213-5.822-14.877
			c-0.679-1.075-1.468-2.211-2.411-3.472c-0.141-0.188-0.296-0.366-0.462-0.532c-0.082-0.089-0.165-0.177-0.239-0.251
			c-1.73-1.739-3.818-3.206-6.212-4.351c-0.417-0.2-0.86-0.338-1.316-0.412l-0.288-0.046c-1.447-0.235-2.944-0.478-4.476-0.678
			c-1.296-0.165-2.672-0.249-4.09-0.249c-3.49,0-6.868,0.496-9.71,0.981c-6.568,1.117-13.13,3.542-19.571,7.247l-0.164,0.092
			c-1.256,0.73-2.289,1.363-3.253,1.994c-1.197,0.781-2.421,1.647-3.833,2.715c-0.073,0.05-0.145,0.102-0.215,0.155l-0.314,0.246
			c-0.27,0.208-0.538,0.416-0.806,0.628c-4.293-2.082-9.781-4.168-15.285-4.681c-0.071-0.007-0.142-0.014-0.214-0.021
			c-0.867-2.104-3.026-3.604-5.278-3.661c-0.892-0.023-1.778-0.068-2.666-0.113c-2.203-0.109-4.652-0.203-6.737-0.057
			c0.145-0.839,0.184-1.723,0.054-2.641c-0.384-2.714-2.688-4.682-5.466-4.682c-0.944,0-1.879,0.239-2.686,0.676
			c-0.627,0.341-1.244,0.706-1.854,1.104c-0.992-1.032-2.386-1.653-3.922-1.653c-0.936,0-1.864,0.239-2.702,0.707
			c-0.853,0.477-1.68,0.979-2.484,1.498c-0.107-0.185-0.227-0.364-0.355-0.536c-1.294-1.725-3.467-2.545-5.676-2.086
			c-4.306,0.898-8.195,3.581-11.228,6.655c-0.327-0.283-0.648-0.549-0.958-0.805c-0.761-0.63-1.481-1.225-1.844-1.738
			c-0.986-1.403-2.575-2.247-4.269-2.247c-2.951,0-5.443,2.527-5.443,5.545c0,0.119,0.002,0.239,0.004,0.357
			c-1.259-0.161-2.594-0.238-4.089-0.238c-1.443,0-2.851,0.071-4.213,0.141c-0.888,0.045-1.777,0.09-2.663,0.113
			c-2.263,0.056-4.422,1.556-5.29,3.661c-0.071,0.007-0.144,0.014-0.217,0.021c-6.811,0.635-13.576,3.64-18.313,6.235
			c-2.39-2.011-4.729-3.758-7.089-5.298c-0.954-0.623-2.009-1.271-3.248-1.991l-0.574-0.324c-0.974-0.554-1.98-1.071-2.973-1.592
			c-0.084-0.045-0.166-0.09-0.25-0.132c-0.069-0.035-0.142-0.068-0.213-0.1c-5.174-2.553-10.464-4.301-15.725-5.195
			c-2.842-0.485-6.22-0.981-9.713-0.981c-1.419,0-2.794,0.084-4.101,0.251C26,6.91,24.563,7.143,23.171,7.366l-0.467,0.075
			c-0.462,0.074-0.909,0.214-1.33,0.416c-2.378,1.143-4.479,2.586-6.219,4.368c-0.065,0.065-0.127,0.133-0.199,0.211
			c-0.172,0.17-0.33,0.351-0.475,0.543c-0.912,1.211-1.702,2.348-2.413,3.474c-2.959,4.673-4.756,9.263-5.821,14.86L6.187,31.63
			c-0.109,0.56-0.217,1.118-0.343,1.669c-0.28,1.221-0.071,2.46,0.519,3.491c-1.82,7.101-0.924,14.549,0.008,19.141
			c0.01,0.052,0.018,0.103,0.028,0.154c0.57,2.772,1.359,5.51,2.275,7.9c3.016,7.952,10.041,13.113,15.063,16.304
			c0.871,0.553,1.749,1.102,2.612,1.68c0.013,0.009,0.025,0.017,0.038,0.024c-0.485,1.223-0.922,2.448-1.308,3.671
			C23.49,86.361,21.703,87.214,19.91,88.25z"/>
		<path fill="#6E6E6E" d="M19.302,87.521c-3.279,1.901-6.173,4.056-9.096,6.31c-0.255,0.196-0.524,0.379-0.795,0.564
			c-1.271,0.871-3.001,2.065-4.116,4.173c-0.988,1.867-0.974,4.089,0.058,5.809c0.967,1.612,2.672,2.589,4.579,2.628
			c-1.146,1.548-2.183,3.319-2.742,5.373c-0.476,1.744-0.15,3.531,0.896,4.897c0.698,0.916,1.653,1.565,2.736,1.887
			c-2.502,7.138-2.508,15.023,0.02,21.851c0.782,2.103,2.731,3.459,4.965,3.459c1.285,0,2.562-0.479,3.601-1.272
			c0.769,1.406,1.636,2.718,2.597,3.92c5.614,7.023,14.012,9.626,21.42,11.92c1.586,0.491,3.086,0.957,4.543,1.454
			c3.004,1.03,6.1,1.785,9.095,2.515c1.847,0.45,3.59,0.876,5.299,1.356c5.758,1.623,10.55,2.795,15.081,3.688
			c7.074,1.396,15.396,2.911,23.746,3.646c0.946,0.375,1.879,0.736,2.786,1.088l1.643,0.637c5.339,2.079,11.72,3.132,18.969,3.132
			c1.487,0,3.022-0.045,4.564-0.135c1.544,0.09,3.08,0.135,4.567,0.135c7.249,0,13.632-1.053,18.982-3.135l1.75-0.681
			c0.871-0.336,1.764-0.682,2.669-1.041c8.353-0.735,16.673-2.25,23.748-3.646c4.53-0.896,9.322-2.067,15.082-3.688
			c1.709-0.481,3.453-0.907,5.302-1.357c2.991-0.729,6.083-1.483,9.089-2.512c1.46-0.499,2.959-0.966,4.546-1.457
			c7.409-2.294,15.808-4.896,21.424-11.925c0.957-1.2,1.821-2.508,2.586-3.909c1.035,0.788,2.311,1.268,3.603,1.268
			c2.241,0,4.19-1.365,4.961-3.462c2.53-6.813,2.527-14.701,0.022-21.847c1.091-0.324,2.051-0.979,2.751-1.902
			c1.045-1.375,1.358-3.164,0.883-4.884c-0.566-2.051-1.596-3.824-2.739-5.372c1.902-0.04,3.604-1.013,4.57-2.62
			c1.031-1.715,1.056-3.938,0.085-5.77c-0.206-0.394-0.448-0.771-0.728-1.157c-0.081-0.111-0.166-0.221-0.253-0.325
			c-1.03-1.249-2.193-2.071-3.146-2.727c-0.271-0.187-0.541-0.369-0.82-0.586c-2.898-2.24-5.791-4.388-9.086-6.301
			c-1.781-1.029-3.568-1.883-5.167-2.582c-0.65-2.075-1.442-4.14-2.369-6.181c4.879-3.228,11.046-8.179,13.826-15.497
			c0.271-0.709,0.527-1.458,0.769-2.203l0.154-0.498c0.202-0.644,0.394-1.303,0.572-1.968l0.124-0.466
			c0.208-0.802,0.405-1.618,0.59-2.486c0.8-3.789,2.015-11.832,0.087-19.519c0.429-0.723,0.675-1.568,0.675-2.47
			c0-0.513-0.079-1.006-0.228-1.469c-0.105-0.503-0.206-1.017-0.314-1.573c-1.069-5.622-2.866-10.213-5.822-14.876
			c-0.679-1.076-1.469-2.212-2.411-3.473c-0.142-0.188-0.296-0.366-0.463-0.532c-0.081-0.089-0.164-0.177-0.239-0.251
			c-1.736-1.733-3.817-3.206-6.212-4.351c-0.417-0.2-0.859-0.338-1.315-0.412l-0.289-0.046c-1.447-0.235-2.943-0.478-4.476-0.678
			c-1.296-0.165-2.672-0.249-4.09-0.249c-3.49,0-6.867,0.496-9.71,0.981c-6.567,1.117-13.129,3.542-19.57,7.247l-0.165,0.092
			c-1.254,0.73-2.289,1.363-3.253,1.994c-1.197,0.782-2.42,1.647-3.833,2.715c-0.072,0.05-0.145,0.102-0.215,0.155l-0.313,0.247
			c-0.27,0.207-0.538,0.415-0.808,0.627c-4.292-2.082-9.779-4.168-15.283-4.681c-0.072-0.007-0.143-0.014-0.214-0.02
			c-0.867-2.105-3.027-3.605-5.279-3.661c-0.89-0.024-1.777-0.069-2.666-0.114c-2.201-0.109-4.651-0.202-6.736-0.057
			c0.145-0.839,0.184-1.723,0.055-2.64c-0.383-2.715-2.689-4.683-5.467-4.683c-0.943,0-1.879,0.239-2.686,0.676
			c-0.627,0.34-1.246,0.706-1.854,1.104c-0.993-1.032-2.386-1.653-3.922-1.653c-0.936,0-1.864,0.241-2.702,0.707
			c-0.854,0.479-1.68,0.979-2.484,1.498c-0.108-0.185-0.227-0.363-0.356-0.536c-1.295-1.724-3.466-2.544-5.675-2.086
			c-4.306,0.899-8.196,3.581-11.229,6.655c-0.326-0.283-0.647-0.549-0.958-0.805c-0.762-0.63-1.482-1.224-1.844-1.738
			c-0.985-1.404-2.575-2.247-4.268-2.247c-2.952,0-5.458,2.527-5.445,5.545c0,0.12,0.003,0.239,0.007,0.357
			c-1.259-0.161-2.596-0.237-4.091-0.237c-1.442,0-2.851,0.07-4.211,0.14c-0.888,0.045-1.779,0.09-2.665,0.114
			c-2.262,0.055-4.421,1.555-5.289,3.661c-0.071,0.006-0.144,0.013-0.217,0.02c-6.813,0.635-13.576,3.64-18.314,6.235
			c-2.389-2.011-4.728-3.758-7.088-5.298c-0.955-0.623-2.01-1.271-3.248-1.991l-0.575-0.324c-0.973-0.554-1.979-1.071-2.972-1.592
			c-0.084-0.045-0.166-0.09-0.25-0.132c-0.071-0.035-0.143-0.068-0.212-0.1c-5.174-2.553-10.466-4.3-15.726-5.195
			c-2.842-0.485-6.219-0.981-9.715-0.981c-1.417,0-2.792,0.084-4.1,0.251c-1.459,0.189-2.896,0.422-4.288,0.646l-0.467,0.074
			c-0.461,0.074-0.908,0.214-1.329,0.416c-2.378,1.143-4.472,2.593-6.219,4.368c-0.065,0.067-0.127,0.133-0.199,0.211
			c-0.172,0.17-0.33,0.351-0.477,0.543c-0.913,1.209-1.7,2.348-2.411,3.474c-2.959,4.673-4.757,9.263-5.821,14.86l-0.062,0.316
			c-0.109,0.56-0.217,1.118-0.343,1.669c-0.279,1.221-0.071,2.46,0.52,3.491C3.935,43.162,4.832,50.61,5.764,55.202
			c0.009,0.053,0.018,0.103,0.028,0.154c0.569,2.773,1.359,5.51,2.275,7.9c3.016,7.953,10.041,13.113,15.063,16.304
			c0.87,0.554,1.725,1.141,2.61,1.681c0.014,0.008,0.027,0.016,0.04,0.023c-0.486,1.223-0.923,2.448-1.308,3.671
			C22.884,85.633,21.096,86.485,19.302,87.521z"/>
		<path fill="#606060" d="M18.695,86.793c-3.279,1.901-6.166,4.064-9.095,6.31c-0.255,0.197-0.526,0.379-0.797,0.564
			c-1.271,0.87-3.011,2.061-4.116,4.173c-0.994,1.863-0.973,4.089,0.059,5.809c0.968,1.612,2.672,2.589,4.578,2.628
			c-1.145,1.548-2.182,3.318-2.742,5.373c-0.476,1.745-0.149,3.53,0.896,4.897c0.699,0.916,1.654,1.565,2.737,1.887
			c-2.502,7.138-2.508,15.023,0.02,21.851c0.783,2.102,2.731,3.459,4.964,3.459c1.286,0,2.563-0.479,3.601-1.272
			c0.769,1.405,1.636,2.718,2.598,3.921c5.613,7.022,14.011,9.624,21.42,11.919c1.586,0.491,3.085,0.956,4.542,1.454
			c3.006,1.03,6.102,1.785,9.096,2.515c1.846,0.45,3.59,0.876,5.299,1.356c5.758,1.622,10.549,2.795,15.08,3.689
			c7.074,1.395,15.397,2.91,23.746,3.645c0.947,0.375,1.88,0.736,2.786,1.088l1.643,0.637c5.339,2.079,11.721,3.132,18.969,3.132
			c1.487,0,3.023-0.045,4.566-0.135c1.543,0.09,3.078,0.135,4.566,0.135c7.248,0,13.631-1.053,18.981-3.135l1.75-0.681
			c0.871-0.336,1.766-0.682,2.67-1.041c8.352-0.735,16.673-2.25,23.748-3.645c4.529-0.896,9.322-2.068,15.081-3.689
			c1.709-0.481,3.454-0.907,5.302-1.358c2.992-0.729,6.085-1.482,9.089-2.512c1.46-0.499,2.96-0.964,4.547-1.456
			c7.409-2.295,15.807-4.896,21.424-11.925c0.957-1.2,1.82-2.508,2.586-3.908c1.034,0.787,2.31,1.267,3.602,1.267
			c2.241,0,4.191-1.365,4.961-3.463c2.531-6.813,2.527-14.7,0.023-21.846c1.091-0.324,2.051-0.979,2.751-1.902
			c1.044-1.375,1.362-3.166,0.882-4.884c-0.56-2.054-1.595-3.824-2.739-5.372c1.903-0.04,3.604-1.013,4.57-2.62
			c1.031-1.715,1.058-3.939,0.085-5.77c-0.205-0.394-0.444-0.773-0.728-1.157c-0.079-0.112-0.163-0.222-0.253-0.326
			c-1.015-1.26-2.192-2.07-3.146-2.726c-0.27-0.187-0.542-0.369-0.82-0.585c-2.907-2.229-5.79-4.389-9.086-6.302
			c-1.78-1.029-3.568-1.883-5.166-2.582c-0.651-2.074-1.443-4.14-2.37-6.181c4.879-3.228,11.047-8.179,13.827-15.497
			c0.27-0.709,0.527-1.458,0.768-2.203l0.155-0.499c0.201-0.643,0.394-1.302,0.572-1.967l0.124-0.466
			c0.209-0.802,0.404-1.618,0.59-2.486c0.799-3.789,2.014-11.832,0.087-19.519c0.429-0.723,0.675-1.567,0.675-2.47
			c0-0.513-0.079-1.006-0.227-1.469c-0.107-0.502-0.207-1.017-0.315-1.573c-1.068-5.622-2.867-10.213-5.823-14.876
			c-0.678-1.076-1.467-2.212-2.411-3.472c-0.141-0.188-0.295-0.367-0.462-0.533c-0.081-0.089-0.165-0.177-0.238-0.251
			c-1.729-1.742-3.818-3.206-6.213-4.351c-0.416-0.2-0.859-0.338-1.316-0.412l-0.288-0.046c-1.447-0.235-2.944-0.478-4.477-0.678
			c-1.295-0.165-2.67-0.249-4.089-0.249c-3.49,0-6.868,0.496-9.71,0.981c-6.568,1.118-13.129,3.542-19.571,7.247l-0.164,0.092
			c-1.255,0.73-2.289,1.363-3.254,1.994c-1.196,0.782-2.419,1.647-3.832,2.715c-0.072,0.05-0.145,0.102-0.216,0.155l-0.313,0.247
			c-0.269,0.207-0.538,0.415-0.806,0.627c-4.292-2.082-9.781-4.168-15.284-4.681c-0.072-0.007-0.144-0.014-0.214-0.02
			c-0.868-2.105-3.027-3.605-5.279-3.661c-0.891-0.024-1.778-0.069-2.666-0.114c-2.202-0.109-4.652-0.202-6.737-0.057
			c0.145-0.838,0.183-1.722,0.055-2.64c-0.391-2.713-2.689-4.683-5.466-4.683c-0.944,0-1.881,0.237-2.687,0.676
			c-0.627,0.339-1.245,0.706-1.854,1.104c-0.993-1.033-2.387-1.654-3.922-1.654c-0.936,0-1.864,0.241-2.703,0.707
			c-0.853,0.479-1.679,0.979-2.484,1.498c-0.106-0.185-0.227-0.363-0.355-0.536c-1.295-1.724-3.467-2.544-5.676-2.086
			c-4.305,0.899-8.194,3.581-11.228,6.655c-0.327-0.283-0.648-0.549-0.958-0.805c-0.762-0.63-1.48-1.225-1.844-1.738
			c-0.98-1.407-2.576-2.247-4.268-2.247c-2.952,0-5.445,2.527-5.445,5.545c0.001,0.12,0.003,0.239,0.006,0.357
			c-1.259-0.161-2.596-0.237-4.09-0.237c-1.443,0-2.851,0.07-4.212,0.14c-0.888,0.045-1.778,0.09-2.664,0.114
			c-2.262,0.055-4.422,1.555-5.289,3.661c-0.072,0.006-0.145,0.013-0.217,0.02c-6.813,0.635-13.576,3.64-18.313,6.236
			c-2.391-2.012-4.729-3.758-7.09-5.299c-0.954-0.623-2.008-1.27-3.247-1.991l-0.576-0.324c-0.973-0.554-1.97-1.087-2.972-1.592
			c-0.083-0.046-0.165-0.09-0.25-0.132c-0.07-0.035-0.141-0.068-0.212-0.1C50.61,8.637,45.319,6.89,40.06,5.994
			c-2.843-0.485-6.22-0.981-9.714-0.981c-1.419,0-2.794,0.084-4.102,0.251c-1.458,0.189-2.896,0.422-4.288,0.646L21.49,5.984
			c-0.461,0.074-0.909,0.214-1.33,0.416c-2.378,1.143-4.462,2.604-6.219,4.368c-0.065,0.067-0.127,0.133-0.199,0.211
			c-0.171,0.17-0.33,0.351-0.476,0.543c-0.911,1.211-1.701,2.348-2.412,3.474c-2.958,4.673-4.756,9.263-5.821,14.86l-0.062,0.316
			c-0.108,0.56-0.216,1.118-0.342,1.669c-0.279,1.221-0.071,2.46,0.52,3.491c-1.821,7.101-0.924,14.549,0.007,19.142
			c0.009,0.051,0.019,0.102,0.028,0.153c0.57,2.772,1.359,5.51,2.275,7.9c3.017,7.953,10.041,13.113,15.063,16.304
			c0.871,0.554,1.74,1.116,2.612,1.68c0.013,0.009,0.025,0.017,0.038,0.024c-0.484,1.223-0.921,2.448-1.307,3.671
			C22.276,84.904,20.49,85.757,18.695,86.793z"/>
	</g>
	<path fill="#FFFFFF" d="M18.695,86.793c-3.279,1.901-6.166,4.064-9.095,6.31c-0.255,0.197-0.526,0.379-0.797,0.564
		c-1.271,0.87-3.011,2.061-4.116,4.173c-0.994,1.863-0.973,4.089,0.059,5.809c0.968,1.612,2.672,2.589,4.578,2.628
		c-1.145,1.548-2.182,3.318-2.742,5.373c-0.476,1.745-0.149,3.53,0.896,4.897c0.699,0.916,1.654,1.565,2.737,1.887
		c-2.502,7.138-2.508,15.023,0.02,21.851c0.783,2.102,2.731,3.459,4.964,3.459c1.286,0,2.563-0.479,3.601-1.272
		c0.769,1.405,1.636,2.718,2.598,3.921c5.613,7.022,14.011,9.624,21.42,11.919c1.586,0.491,3.085,0.956,4.542,1.454
		c3.006,1.03,6.102,1.785,9.096,2.515c1.846,0.45,3.59,0.876,5.299,1.356c5.758,1.622,10.549,2.795,15.08,3.689
		c7.074,1.395,15.397,2.91,23.746,3.645c0.947,0.375,1.88,0.736,2.786,1.088l1.643,0.637c5.339,2.079,11.721,3.132,18.969,3.132
		c1.487,0,3.023-0.045,4.566-0.135c1.543,0.09,3.078,0.135,4.566,0.135c7.248,0,13.631-1.053,18.981-3.135l1.75-0.681
		c0.871-0.336,1.766-0.682,2.67-1.041c8.352-0.735,16.673-2.25,23.748-3.645c4.529-0.896,9.322-2.068,15.081-3.689
		c1.709-0.481,3.454-0.907,5.302-1.358c2.992-0.729,6.085-1.482,9.089-2.512c1.46-0.499,2.96-0.964,4.547-1.456
		c7.409-2.295,15.807-4.896,21.424-11.925c0.957-1.2,1.82-2.508,2.586-3.908c1.034,0.787,2.31,1.267,3.602,1.267
		c2.241,0,4.191-1.365,4.961-3.463c2.531-6.813,2.527-14.7,0.023-21.846c1.091-0.324,2.051-0.979,2.751-1.902
		c1.044-1.375,1.362-3.166,0.882-4.884c-0.56-2.054-1.595-3.824-2.739-5.372c1.903-0.04,3.604-1.013,4.57-2.62
		c1.031-1.715,1.058-3.939,0.085-5.77c-0.205-0.394-0.444-0.773-0.728-1.157c-0.079-0.112-0.163-0.222-0.253-0.326
		c-1.015-1.26-2.192-2.07-3.146-2.726c-0.27-0.187-0.542-0.369-0.82-0.585c-2.907-2.229-5.79-4.389-9.086-6.302
		c-1.78-1.029-3.568-1.883-5.166-2.582c-0.651-2.074-1.443-4.14-2.37-6.181c4.879-3.228,11.047-8.179,13.827-15.497
		c0.27-0.709,0.527-1.458,0.768-2.203l0.155-0.499c0.201-0.643,0.394-1.302,0.572-1.967l0.124-0.466
		c0.209-0.802,0.404-1.618,0.59-2.486c0.799-3.789,2.014-11.832,0.087-19.519c0.429-0.723,0.675-1.567,0.675-2.47
		c0-0.513-0.079-1.006-0.227-1.469c-0.107-0.502-0.207-1.017-0.315-1.573c-1.068-5.622-2.867-10.213-5.823-14.876
		c-0.678-1.076-1.467-2.212-2.411-3.472c-0.141-0.188-0.295-0.367-0.462-0.533c-0.081-0.089-0.165-0.177-0.238-0.251
		c-1.729-1.742-3.818-3.206-6.213-4.351c-0.416-0.2-0.859-0.338-1.316-0.412l-0.288-0.046c-1.447-0.235-2.944-0.478-4.477-0.678
		c-1.295-0.165-2.67-0.249-4.089-0.249c-3.49,0-6.868,0.496-9.71,0.981c-6.568,1.118-13.129,3.542-19.571,7.247l-0.164,0.092
		c-1.255,0.73-2.289,1.363-3.254,1.994c-1.196,0.782-2.419,1.647-3.832,2.715c-0.072,0.05-0.145,0.102-0.216,0.155l-0.313,0.247
		c-0.269,0.207-0.538,0.415-0.806,0.627c-4.292-2.082-9.781-4.168-15.284-4.681c-0.072-0.007-0.144-0.014-0.214-0.02
		c-0.868-2.105-3.027-3.605-5.279-3.661c-0.891-0.024-1.778-0.069-2.666-0.114c-2.202-0.109-4.652-0.202-6.737-0.057
		c0.145-0.838,0.183-1.722,0.055-2.64c-0.391-2.713-2.689-4.683-5.466-4.683c-0.944,0-1.881,0.237-2.687,0.676
		c-0.627,0.339-1.245,0.706-1.854,1.104c-0.993-1.033-2.387-1.654-3.922-1.654c-0.936,0-1.864,0.241-2.703,0.707
		c-0.853,0.479-1.679,0.979-2.484,1.498c-0.106-0.185-0.227-0.363-0.355-0.536c-1.295-1.724-3.467-2.544-5.676-2.086
		c-4.305,0.899-8.194,3.581-11.228,6.655c-0.327-0.283-0.648-0.549-0.958-0.805c-0.762-0.63-1.48-1.225-1.844-1.738
		c-0.98-1.407-2.576-2.247-4.268-2.247c-2.952,0-5.445,2.527-5.445,5.545c0.001,0.12,0.003,0.239,0.006,0.357
		c-1.259-0.161-2.596-0.237-4.09-0.237c-1.443,0-2.851,0.07-4.212,0.14c-0.888,0.045-1.778,0.09-2.664,0.114
		c-2.262,0.055-4.422,1.555-5.289,3.661c-0.072,0.006-0.145,0.013-0.217,0.02c-6.813,0.635-13.576,3.64-18.313,6.236
		c-2.391-2.012-4.729-3.758-7.09-5.299c-0.954-0.623-2.008-1.27-3.247-1.991l-0.576-0.324c-0.973-0.554-1.97-1.087-2.972-1.592
		c-0.083-0.046-0.165-0.09-0.25-0.132c-0.07-0.035-0.141-0.068-0.212-0.1C50.61,8.637,45.319,6.89,40.06,5.994
		c-2.843-0.485-6.22-0.981-9.714-0.981c-1.419,0-2.794,0.084-4.102,0.251c-1.458,0.189-2.896,0.422-4.288,0.646L21.49,5.984
		c-0.461,0.074-0.909,0.214-1.33,0.416c-2.378,1.143-4.462,2.604-6.219,4.368c-0.065,0.067-0.127,0.133-0.199,0.211
		c-0.171,0.17-0.33,0.351-0.476,0.543c-0.911,1.211-1.701,2.348-2.412,3.474c-2.958,4.673-4.756,9.263-5.821,14.86l-0.062,0.316
		c-0.108,0.56-0.216,1.118-0.342,1.669c-0.279,1.221-0.071,2.46,0.52,3.491c-1.821,7.101-0.924,14.549,0.007,19.142
		c0.009,0.051,0.019,0.102,0.028,0.153c0.57,2.772,1.359,5.51,2.275,7.9c3.017,7.953,10.041,13.113,15.063,16.304
		c0.871,0.554,1.74,1.116,2.612,1.68c0.013,0.009,0.025,0.017,0.038,0.024c-0.484,1.223-0.921,2.448-1.307,3.671
		C22.276,84.904,20.49,85.757,18.695,86.793z"/>
	<g>
		<g>
			<g>
				<path fill="#A2623B" d="M60.387,19.388c-6.392-4.177-13.445-7.303-21.143-8.612c-4.035-0.689-8.275-1.226-12.373-0.702
					c-1.543,0.2-3.073,0.452-4.611,0.7c-1.763,0.846-3.418,1.947-4.854,3.39c-0.091,0.093-0.164,0.186-0.263,0.275
					c-0.77,1.022-1.507,2.07-2.19,3.152c-2.717,4.291-4.229,8.311-5.159,13.195c-0.14,0.718-0.274,1.431-0.436,2.136
					c0.925-1.011,2.058-1.882,3.234-2.677c-5.617,8.352-3.841,22.048-0.597,30.563c2.288,6.033,7.646,10.446,13.129,13.93
					C30.6,78.215,36,82.1,42.296,84.188c3.894,1.292,7.396-6.781,8.789-8.81c4.531-6.608,8.963-13.27,13.877-19.634
					c4.835-6.261,9.049-12.903,13.066-19.645c0.141-0.212,0.27-0.412,0.393-0.609C72.959,29.551,67.215,23.843,60.387,19.388z"/>
				<path fill="#7C4C2C" d="M59.324,39.715c-0.072-0.097-0.167-0.117-0.276-0.097c-1.556-3.459-4.135-6.553-6.743-9.129
					c-3.658-3.615-9.391-7.687-14.592-8.545c-5.811-0.961-9.812,2.504-12.964,7.091c-1.548,2.251-2.207,5.08-2.785,7.711
					c-0.502,2.249-1.586,5.721-0.458,7.951c0.25,0.504,0.861-0.032,1.004-0.339c0.841-1.88,1.494-3.769,2.523-5.589
					c-0.858,1.52-1.025,3.223-1.312,4.934c-0.718,4.362,0.195,8.841,1.499,12.992c2.757,8.771,9.529,15.467,18.512,17.616
					c7.214,1.722,14.052-5.78,16.793-11.539c1.828-3.842,2.347-8.123,2.66-12.329C63.509,46.084,61.832,43.097,59.324,39.715z"/>
				<path opacity="0.6" fill="#A2623B" d="M60.387,19.388c-2.11-1.384-4.308-2.637-6.561-3.761c1.157,2.528,1.726,5.211,1.318,7.966
					c-0.079,0.555-0.665,1.101-1.25,0.881c-5.224-1.991-10.319-5.745-16.063-5.962c-8.191-0.313-14.967,2.606-18.568,10.349
					c-5.015,10.815-3.07,22.813-0.938,34.092c0.117,0.615-0.807,1.472-1.353,0.94c-3.64-3.55-5.686-8.308-6.47-13.269
					c-0.282,0.998-0.451,2.004-0.568,3.026c0.534,2.597,1.248,5.042,2.06,7.158c2.288,6.033,7.646,10.446,13.129,13.93
					C30.6,78.215,36,82.1,42.296,84.188c3.894,1.292,7.396-6.781,8.789-8.81c4.531-6.608,8.963-13.27,13.877-19.634
					c4.835-6.261,9.049-12.903,13.066-19.645c0.141-0.212,0.27-0.412,0.393-0.609C72.959,29.551,67.215,23.843,60.387,19.388z"/>
				<path opacity="0.6" fill="#704426" d="M66.061,23.563c-1.394,0.898-2.731,1.859-3.965,2.789
					c-2.406,1.816-4.725,3.746-6.909,5.827c-1.741,1.664-3.251,3.73-5.142,5.219c-3.533,2.79-8.765,1.561-12.137-0.959
					c-1.79-1.345-2.963-3.168-3.626-5.183c-0.625,7.179,1.764,14.369,4.571,21.044c0.095,0.225-0.161,0.485-0.322,0.591
					c-3.533,2.127-6.818,4.886-9.565,7.957c-1.089,1.233-2.229,2.589-3.19,4.048c4.274-1.125,8.645-1.729,12.864-0.721
					c0.379,0.089,0.197,0.509-0.006,0.68c-4.102,3.565-6.802,8.114-8.548,13.079c3.848,2.457,7.818,4.798,12.21,6.253
					c3.894,1.292,7.396-6.781,8.789-8.81c4.531-6.608,8.963-13.27,13.877-19.634c4.835-6.261,9.049-12.903,13.066-19.645
					c0.141-0.212,0.27-0.412,0.393-0.609C74.547,31.272,70.515,27.177,66.061,23.563z"/>
				<path opacity="0.5" fill="#A2623B" d="M14.183,42.479c0.598-6.552,1.448-13.731,5.112-19.386
					c6.272-9.701,16.85-8.772,26.786-6.705c-3.45-1.833-7.228-3.155-10.922-3.901c-4.581-0.93-9.87-1.152-13.957,1.028
					c-4.499,3.459-5.655,8.249-8.226,14.285c0.693-0.587,1.387-1.157,2.139-1.68c2.478-1.736,0.561,0.232,0.174,0.742
					c-1.566,2.059-2.586,4.554-3.351,7.007c-0.641,2.063-1.094,4.188-1.533,6.31c-0.51,2.474-0.204,4.327,0.199,6.724
					c0.059,0.332,0.482,0.036,0.519-0.174c0.089-0.694,0.231-1.381,0.421-2.056c0.032-0.121,0.478-2.247,0.286-0.661
					c-0.161,1.447,0.021,2.906,0.258,4.329c0.349,2.085,1.262,4.115,2.11,6.074C13.759,50.457,13.821,46.427,14.183,42.479z"/>
			</g>
			<g>
				<path fill="#A2623B" d="M191.744,19.388c6.396-4.177,13.451-7.303,21.15-8.612c4.037-0.689,8.273-1.226,12.371-0.702
					c1.543,0.2,3.077,0.452,4.604,0.7c1.77,0.846,3.429,1.947,4.859,3.39c0.093,0.093,0.168,0.186,0.263,0.275
					c0.766,1.022,1.509,2.07,2.19,3.152c2.721,4.291,4.232,8.311,5.161,13.195c0.14,0.718,0.278,1.431,0.438,2.136
					c-0.929-1.011-2.063-1.882-3.234-2.677c5.617,8.352,3.839,22.048,0.599,30.563c-2.292,6.033-7.648,10.446-13.135,13.93
					c-5.475,3.477-10.871,7.361-17.174,9.449c-3.892,1.292-7.395-6.781-8.787-8.81c-4.531-6.608-8.959-13.27-13.877-19.634
					c-4.831-6.261-9.049-12.903-13.068-19.645c-0.131-0.212-0.266-0.412-0.395-0.609C179.182,29.551,184.924,23.843,191.744,19.388z
					"/>
				<path fill="#7C4C2C" d="M188.95,50.443c0.317,4.206,0.831,8.487,2.659,12.329c2.74,5.759,9.581,13.261,16.793,11.539
					c8.98-2.149,15.759-8.846,18.51-17.616c1.31-4.151,2.223-8.63,1.499-12.992c-0.284-1.711-0.443-3.414-1.313-4.934
					c1.04,1.82,1.687,3.709,2.535,5.589c0.129,0.307,0.745,0.843,1.002,0.339c1.126-2.23,0.04-5.702-0.46-7.951
					c-0.578-2.631-1.241-5.46-2.781-7.711c-3.152-4.587-7.161-8.052-12.97-7.091c-5.193,0.858-10.939,4.93-14.594,8.545
					c-2.608,2.576-5.188,5.67-6.742,9.129c-0.108-0.021-0.199,0-0.27,0.097C190.305,43.097,188.628,46.084,188.95,50.443z"/>
				<path opacity="0.6" fill="#A2623B" d="M231.912,61.768c-0.447,0.129-0.782-0.086-0.697-0.566
					c2.058-11.823,5.119-26.817-3.035-37.152c-8.497-10.784-22.035-2.977-30.184,4.333c-0.401,0.355-1.226,0.365-1.068-0.353
					c0.561-2.54,1.52-4.833,2.679-7.111c-2.193,1.142-4.202,2.572-6.26,3.969c-0.557,0.379-1.074-0.066-0.807-0.659
					c1.199-2.71,3.143-5.716,5.543-8.479c-2.177,1.094-4.293,2.305-6.339,3.64c-6.82,4.455-12.563,10.163-18.034,16.103
					c0.129,0.197,0.264,0.397,0.395,0.609c4.02,6.741,8.237,13.384,13.068,19.645c4.918,6.364,9.346,13.025,13.877,19.634
					c1.393,2.028,4.896,10.102,8.787,8.81c6.303-2.088,11.699-5.973,17.174-9.449c5.486-3.483,10.843-7.896,13.135-13.93
					c1.034-2.729,1.921-5.991,2.465-9.439C240.502,56.184,237.308,60.261,231.912,61.768z"/>
				<path opacity="0.6" fill="#704426" d="M224.806,71.569c-1.099-2.131-2.306-4.452-4.053-6.131c-0.299-0.29,0.318-0.83,0.62-0.75
					c2.433,0.675,4.674,1.464,6.583,3.017c-0.841-6.014-3.514-12.226-9.183-15.026c-0.328-0.161,0.002-0.629,0.206-0.728
					c3.257-1.541,5.485-4.33,7.225-7.392c-2.738,2.016-5.532,3.902-8.652,5.31c-0.328,0.145-0.532-0.18-0.383-0.455
					c2.312-4.208,3.554-8.619,4.263-13.227c-2.594,1.403-5.311,2.508-8.16,2.824c-5.712,0.638-8.749-3.289-12.934-6.415
					c-3.787-2.828-10.462-5.939-12.36-10.537c-5.21,3.973-9.842,8.613-14.268,13.431c0.129,0.197,0.264,0.397,0.395,0.609
					c4.02,6.741,8.237,13.384,13.068,19.645c4.918,6.364,9.346,13.025,13.877,19.634c1.393,2.028,4.896,10.102,8.787,8.81
					c6.113-2.027,11.371-5.737,16.682-9.126C225.876,73.547,225.033,72.017,224.806,71.569z"/>
				<path opacity="0.5" fill="#A2623B" d="M233.694,21.798c1.247,0.536,2.331,1.094,3.418,1.898c0.181,0.133,0.417-0.104,0.4-0.288
					c-0.334-3.092-2.604-6.307-4.637-8.556c-1.604-1.776-3.537-2.768-5.66-3.31c-3.939-0.195-7.906-0.133-11.8,0.552
					c-4.039,0.709-8.203,1.696-11.846,3.645c-2.438,1.304-6.01,3.24-7.679,5.825c0.109,0.016,0.246-0.019,0.327-0.107
					c2.164-2.386,5.335-3.745,8.545-4.661c-2.15,1.598-3.924,3.681-4.822,6.187c-0.045,0.106,0.025,0.256,0.159,0.214
					c0.862-0.254,1.65-0.96,2.338-1.498c2.14-1.673,4.772-3.253,7.404-3.998c0.127-0.041,0.322-0.351,0.089-0.354
					c-1.47-0.034-3.039,0.32-4.281,0.846c2.112-0.891,3.925-1.945,6.162-2.611c4.966-1.481,11.737,0.497,15.16,4.33
					c3.249,3.643,4.651,7.752,6.342,12.188c0.945,2.487,1.623,5.237,2.145,7.855c0.418,2.137,0.327,4.433,0.801,6.524
					c0.032,0.137,0.205,0.111,0.284,0.022c0.887-1.129,0.718-3.445,0.834-4.783c0.303-3.554,0.008-7.092-0.782-10.564
					c-0.747-3.289-1.888-6.104-3.638-8.989C232.144,20.812,232.365,21.227,233.694,21.798z"/>
			</g>
			<path fill="#A2623B" d="M248.12,100.126c-0.756-1.452-2.331-2.202-3.596-3.185c-2.789-2.139-5.5-4.174-8.563-5.952
				c-2.192-1.268-4.462-2.277-6.754-3.208c-1.688-6.433-4.892-12.745-8.723-17.763c-2.364-3.081-4.978-5.661-8.1-7.937
				c0.51-0.101,1.023-0.181,1.548-0.186c2.579-0.031,5.206,0.359,7.741,0.198c0.612-0.04,0.461-0.775,0.165-1.075
				c-2.884-2.93-5.007-6.047-8.763-8.08c-0.47-0.251-0.93-0.507-1.401-0.759c2.523-2.182,4.35-5.235,6.379-8.15
				c0.32-0.464-0.429-1.271-0.937-1.178c-2.978,0.544-5.527,1.684-8.686,0.949c-4.157-0.968-6.443-4.301-9.285-7.075
				c-4.236-4.13-8.482-8.425-13.715-11.398c-5.037-2.853-11.361-5.561-17.238-6.108c-2.067-0.191-4.186-0.324-6.29-0.314
				c0.604-0.718,1.228-1.428,1.917-2.092c0.514-0.498-0.265-1.242-0.799-1.256c-3.934-0.103-7.834-0.61-11.739,0.197
				c-1.671,0.345-3.281,0.828-4.878,1.328c0.021-0.171,0.036-0.341,0.057-0.514c0.084-0.582,0.195-1.181,0.302-1.784
				c0.807-1.854,2.512-4.219,2.235-6.195c-0.07-0.487-0.648-0.646-1.052-0.427c-3.132,1.688-5.774,4.223-7.987,6.916
				c-0.316,0.382-0.612,0.768-0.897,1.159c0.03-0.26,0.049-0.513,0.087-0.775c0.297-2.073,1.737-4.787,1.294-6.816
				c-0.086-0.397-0.528-0.573-0.902-0.365c-3.908,2.19-7.307,4.983-10.741,7.808c-0.114,0.088-0.222,0.18-0.326,0.272
				c0.468-2.551,1.313-5.036,2.095-7.507c0.188-0.644-0.125-1.347-0.924-1.181c-4.506,0.94-9.263,5.025-12.189,9.564
				c-0.472-0.777-0.987-1.533-1.54-2.27c-1.473-1.955-3.821-3.105-5.268-5.155c-0.323-0.464-0.887,0.115-0.887,0.496
				c0.012,2.048,0.576,4.22,0.858,6.26c0.028,0.173,0.046,0.343,0.059,0.514c-1.593-0.5-3.199-0.983-4.87-1.328
				c-3.909-0.808-7.798-0.3-11.737-0.197c-0.538,0.014-1.318,0.758-0.803,1.256c0.691,0.664,1.313,1.374,1.921,2.092
				c-2.108-0.01-4.23,0.123-6.294,0.314c-5.877,0.548-12.2,3.256-17.236,6.108c-5.234,2.974-9.477,7.269-13.714,11.398
				c-2.85,2.774-5.137,6.107-9.278,7.075c-3.163,0.734-5.716-0.405-8.693-0.949c-0.502-0.093-1.264,0.714-0.937,1.178
				c2.027,2.915,3.854,5.969,6.372,8.15c-0.469,0.252-0.933,0.508-1.391,0.759c-3.765,2.033-5.877,5.15-8.772,8.08
				c-0.289,0.3-0.441,1.035,0.171,1.075c2.535,0.161,5.164-0.229,7.737-0.198c0.524,0.005,1.038,0.085,1.548,0.186
				c-3.116,2.275-5.734,4.855-8.096,7.937c-3.832,5.018-7.038,11.33-8.722,17.763c-2.297,0.931-4.561,1.94-6.755,3.208
				c-3.066,1.778-5.774,3.813-8.563,5.952c-1.273,0.982-2.84,1.732-3.6,3.185c-0.312,0.581-0.215,1.438,0.678,1.283
				c3.009-0.53,6.137,0.266,9.243,1.183c-0.845,0.876-1.637,1.818-2.419,2.729c-1.94,2.271-4.404,4.668-5.206,7.604
				c-0.228,0.834,0.468,1.103,1.141,0.713c2-1.151,4.247-1.773,6.524-2.296c-1.481,2.414-2.685,4.971-3.729,7.61
				c-2.471,6.209-2.749,13.347-0.418,19.64c0.271,0.728,1.375-0.03,1.494-0.473c0.83-3.136,1.906-5.901,3.517-8.373
				c0.657,4.938,2.326,9.776,5.394,13.616c5.732,7.172,15.406,8.961,23.746,11.814c4.551,1.561,9.489,2.481,14.137,3.791
				c4.843,1.364,9.753,2.621,14.704,3.599c7.811,1.54,15.878,2.968,23.937,3.632c1.751,0.703,3.458,1.351,5.059,1.978
				c6.659,2.592,14.562,3.103,21.776,2.656c7.214,0.446,15.118-0.064,21.777-2.656c1.597-0.627,3.313-1.274,5.061-1.978
				c8.056-0.664,16.126-2.092,23.938-3.632c4.944-0.978,9.858-2.234,14.705-3.599c4.646-1.31,9.582-2.23,14.137-3.791
				c8.338-2.854,18.016-4.643,23.748-11.814c3.06-3.84,4.73-8.678,5.388-13.616c1.607,2.472,2.682,5.237,3.526,8.373
				c0.113,0.442,1.214,1.2,1.481,0.473c2.338-6.293,2.054-13.431-0.413-19.64c-1.046-2.64-2.243-5.196-3.727-7.61
				c2.277,0.522,4.521,1.145,6.519,2.296c0.675,0.39,1.378,0.121,1.145-0.713c-0.801-2.937-3.262-5.333-5.202-7.604
				c-0.786-0.91-1.576-1.853-2.419-2.729c3.103-0.917,6.23-1.713,9.237-1.183C248.342,101.563,248.429,100.707,248.12,100.126z"/>
			<path opacity="0.5" fill="#A2623B" d="M248.12,100.126c-0.756-1.452-2.331-2.202-3.596-3.185c-2.789-2.139-5.5-4.174-8.563-5.952
				c-2.192-1.268-4.462-2.277-6.754-3.208c-1.688-6.433-4.892-12.745-8.723-17.763c-2.364-3.081-4.978-5.661-8.1-7.937
				c0.51-0.101,1.023-0.181,1.548-0.186c2.579-0.031,5.206,0.359,7.741,0.198c0.612-0.04,0.461-0.775,0.165-1.075
				c-2.884-2.93-5.007-6.047-8.763-8.08c-0.47-0.251-0.93-0.507-1.401-0.759c2.523-2.182,4.35-5.235,6.379-8.15
				c0.32-0.464-0.429-1.271-0.937-1.178c-2.978,0.544-5.527,1.684-8.686,0.949c-4.157-0.968-6.443-4.301-9.285-7.075
				c-4.236-4.13-8.482-8.425-13.715-11.398c-5.037-2.853-11.361-5.561-17.238-6.108c-2.067-0.191-4.186-0.324-6.29-0.314
				c0.604-0.718,1.228-1.428,1.917-2.092c0.514-0.498-0.265-1.242-0.799-1.256c-3.934-0.103-7.834-0.61-11.739,0.197
				c-1.671,0.345-3.281,0.828-4.878,1.328c0.021-0.171,0.036-0.341,0.057-0.514c0.084-0.582,0.195-1.181,0.302-1.784
				c0.807-1.854,2.512-4.219,2.235-6.195c-0.07-0.487-0.648-0.646-1.052-0.427c-3.132,1.688-5.774,4.223-7.987,6.916
				c-0.316,0.382-0.612,0.768-0.897,1.159c0.03-0.26,0.049-0.513,0.087-0.775c0.297-2.073,1.737-4.787,1.294-6.816
				c-0.086-0.397-0.528-0.573-0.902-0.365c-3.908,2.19-7.307,4.983-10.741,7.808c-0.114,0.088-0.222,0.18-0.326,0.272
				c0.468-2.551,1.313-5.036,2.095-7.507c0.188-0.644-0.125-1.347-0.924-1.181c-4.506,0.94-9.263,5.025-12.189,9.564
				c-0.472-0.777-0.987-1.533-1.54-2.27c-1.473-1.955-3.821-3.105-5.268-5.155c-0.323-0.464-0.887,0.115-0.887,0.496
				c0.012,2.048,0.576,4.22,0.858,6.26c0.028,0.173,0.046,0.343,0.059,0.514c-1.593-0.5-3.199-0.983-4.87-1.328
				c-3.909-0.808-7.798-0.3-11.737-0.197c-0.538,0.014-1.318,0.758-0.803,1.256c0.691,0.664,1.313,1.374,1.921,2.092
				c-2.108-0.01-4.23,0.123-6.294,0.314c-5.877,0.548-12.2,3.256-17.236,6.108c-5.234,2.974-9.477,7.269-13.714,11.398
				c-2.85,2.774-5.137,6.107-9.278,7.075c-3.163,0.734-5.716-0.405-8.693-0.949c-0.502-0.093-1.264,0.714-0.937,1.178
				c2.027,2.915,3.854,5.969,6.372,8.15c-0.469,0.252-0.933,0.508-1.391,0.759c-3.765,2.033-5.877,5.15-8.772,8.08
				c-0.289,0.3-0.441,1.035,0.171,1.075c2.535,0.161,5.164-0.229,7.737-0.198c0.524,0.005,1.038,0.085,1.548,0.186
				c-3.116,2.275-5.734,4.855-8.096,7.937c-3.832,5.018-7.038,11.33-8.722,17.763c-2.297,0.931-4.561,1.94-6.755,3.208
				c-3.066,1.778-5.774,3.813-8.563,5.952c-1.273,0.982-2.84,1.732-3.6,3.185c-0.312,0.581-0.215,1.438,0.678,1.283
				c3.009-0.53,6.137,0.266,9.243,1.183c-0.845,0.876-1.637,1.818-2.419,2.729c-1.94,2.271-4.404,4.668-5.206,7.604
				c-0.228,0.834,0.468,1.103,1.141,0.713c2-1.151,4.247-1.773,6.524-2.296c-1.481,2.414-2.685,4.971-3.729,7.61
				c-2.471,6.209-2.749,13.347-0.418,19.64c0.271,0.728,1.375-0.03,1.494-0.473c0.83-3.136,1.906-5.901,3.517-8.373
				c0.657,4.938,2.326,9.776,5.394,13.616c5.732,7.172,15.406,8.961,23.746,11.814c4.551,1.561,9.489,2.481,14.137,3.791
				c4.843,1.364,9.753,2.621,14.704,3.599c7.811,1.54,15.878,2.968,23.937,3.632c1.751,0.703,3.458,1.351,5.059,1.978
				c6.659,2.592,14.562,3.103,21.776,2.656c7.214,0.446,15.118-0.064,21.777-2.656c1.597-0.627,3.313-1.274,5.061-1.978
				c8.056-0.664,16.126-2.092,23.938-3.632c4.944-0.978,9.858-2.234,14.705-3.599c4.646-1.31,9.582-2.23,14.137-3.791
				c8.338-2.854,18.016-4.643,23.748-11.814c3.06-3.84,4.73-8.678,5.388-13.616c1.607,2.472,2.682,5.237,3.526,8.373
				c0.113,0.442,1.214,1.2,1.481,0.473c2.338-6.293,2.054-13.431-0.413-19.64c-1.046-2.64-2.243-5.196-3.727-7.61
				c2.277,0.522,4.521,1.145,6.519,2.296c0.675,0.39,1.378,0.121,1.145-0.713c-0.801-2.937-3.262-5.333-5.202-7.604
				c-0.786-0.91-1.576-1.853-2.419-2.729c3.103-0.917,6.23-1.713,9.237-1.183C248.342,101.563,248.429,100.707,248.12,100.126z
				 M221.515,106.44c-2.213-3.294-5.188-6.38-8.715-8.337c3.94,7.018,6.391,15.493,3.906,23.084
				c-0.096,0.295-0.666,0.724-0.871,0.291c-1.05-2.238-2.158-4.431-3.433-6.522c1.248,8.155,0.532,16.481-5.663,22.467
				c-4.785,4.629-11.107,7.622-17.341,9.776c-5.767,2.004-12.668,4.026-18.716,2.13c-0.172-0.059-0.256-0.187-0.199-0.37
				c1.479-5.088,2.448-10.354,2.145-15.673c-0.147-2.581-0.477-5.149-1.021-7.682c-0.445-2.048-1.205-4.104-1.449-6.182
				c-0.304-2.574,1.11-4.529,2.659-6.413c0.701-1.021,1.537-1.969,2.412-2.883c1.55-1.804,3.15-3.548,4.821-5.24
				c-4.677,1.127-8.429,4.923-10.803,8.978c-0.182,0.316-0.924,0.583-0.816-0.017c0.527-3.067,0.999-6.413,2.658-9.124
				c1.592-2.612,3.892-4.598,6.407-6.299c4.915-3.316,10.411-4.763,16.063-5.864c-6.885-1.651-14.352-1.085-20.49,2.446
				c-0.198,0.116-0.563,0.121-0.563-0.193c0.01-3.048-1.32-5.641-2.719-8.271c-0.172-0.33,0.4-0.705,0.667-0.667
				c2.6,0.351,4.837,1.226,7.033,2.534c-1.137-7.531-5.993-16.084-12.372-20.131c-9.201-5.847-17.863,2.672-21.491,10.899
				c-0.125,0.276-0.834,0.599-0.839,0.093c-0.062-3.408,0.361-6.811,1.311-10.047c-3.616,5.08-5.28,10.868-6.578,17.197
				c-0.061,0.286-0.474,0.564-0.75,0.43c-7.453-3.374-15.215-3.275-23.212-2.852c-5.922,0.323-15.021,0.715-18.29,6.628
				c-0.105,0.21-0.696,0.603-0.82,0.188c-1.907-6.447-3.796-13.268-9.284-17.634c-0.372-0.296,0.172-0.872,0.551-0.803
				c3.692,0.697,7.527,2.063,10.408,4.547c-3.266-7.742-13.351-14.771-21.572-11.437c-5.659,2.288-8.616,8.803-10.097,14.353
				c-0.829,3.12-1.43,6.333-1.752,9.55c-0.053,0.521-0.082,1.043-0.097,1.57c2.639-2.998,6.083-5.902,9.531-4.199
				c0.354,0.172-0.026,0.606-0.208,0.728c-4.879,3.211-7.245,8.852-7.516,14.541c-0.018,0.357-0.438,0.656-0.771,0.538
				c-4.68-1.581-9.477-1.599-14.215-0.725c3.732,1.541,7.946,2.059,11.262,4.416c3.719,2.647,6.418,6.532,8.489,10.538
				c0.159,0.3-0.389,0.753-0.659,0.668c-2.823-0.894-5.998-1.509-8.971-1.052c3.031,1.09,6.585,2.643,7.059,6.065
				c0.292,2.09-1.189,4.314-1.714,6.261c-0.854,3.173-1.308,6.47-0.933,9.751c0.332,2.879,2.896,7.017,0.364,9.453
				c-2.245,2.146-7.64,0.705-10.174,0.161c-9.565-2.063-19.85-5.21-25.044-14.243c-4.218-7.317-2.793-16.313,1.063-23.44
				c-3.513,1.657-4.916,5.798-7.068,8.844c-0.119,0.161-0.688,0.444-0.752,0.078c-1.235-7.053,1.838-14.75,7.03-19.732
				c-3.374-0.485-6.79-0.65-9.902-0.771c-0.332-0.012-0.205-0.431-0.084-0.584c4.125-5.419,9.871-9.96,16.226-13.013
				c2.112-6.313,5.081-12.418,9.62-17.048c2.576-2.636,5.734-4.367,9.124-5.625c-3.896-1.36-8.001-2.167-12.328-2.425
				c-0.405-0.026-0.162-0.546,0.01-0.688c3.308-2.736,7.08-4.445,11.049-5.669c-2.044-1.716-4.011-3.524-6.282-4.952
				c-0.392-0.252,0.133-0.785,0.445-0.808c6.063-0.444,7.798-5.773,11.945-9.223c0.441-0.364,0.896-0.71,1.353-1.046
				c1.544-1.791,3.139-3.525,4.94-5.046c3.684-3.096,7.991-5.439,12.406-7.315c7.879-3.34,15.719-4.892,23.803-3.927
				c-0.724-0.965-1.58-1.82-2.7-2.452c-0.394-0.227,0.143-0.805,0.449-0.805c2.808,0,9.374-0.284,13.229,1.556
				c0.022-0.953,0.026-1.907,0.03-2.863c0.006-0.296,0.606-0.844,0.847-0.479c1.031,1.538,2.354,2.83,3.499,4.271
				c2.499-3.109,5.568-5.856,9.128-6.499c0.231-0.045,0.37,0.163,0.313,0.369c-0.629,2.297-1.458,4.596-2.061,6.918
				c3.277-3.791,7.447-6.959,12.51-7.287c0.297-0.019,0.409,0.237,0.267,0.479c-1.266,2.19-2.406,4.699-3.232,7.301
				c3.035-2.334,6.395-4.168,10.03-5.187c0.339-0.099,0.526,0.137,0.383,0.45c-0.658,1.428-1.352,2.846-1.971,4.284
				c4.335-1.708,9.058-2.589,14.11-2.457c0.485,0.014,0.066,0.656-0.115,0.759c-2.264,1.314-5.193,3.351-7.404,5.787
				c8.177-2.46,16.799-3.097,25.012-0.24c6.925,2.406,12.925,6.891,17.504,12.595c2.01,2.502,3.95,5.502,6.621,7.37
				c2.801,1.961,5.941,2.181,9.277,1.922c0.381-0.031,0.372,0.348,0.197,0.583c-2.94,3.869-8.69,4.586-13.201,4.795
				c-0.665,0.032-1.32,0.028-1.967,0.011c4.478,2.563,8.363,5.919,10.881,10.331c0.22,0.373-0.33,0.896-0.707,0.716
				c-3.914-1.847-8.677-2.744-13.205-2.828c0.442,0.214,0.88,0.414,1.321,0.641c6.061,3.073,11.253,7.185,15.768,12.269
				c8.207,9.245,14.408,19.741,15.848,32.181C222.396,106.272,221.754,106.781,221.515,106.44z"/>
			<path opacity="0.5" fill="#A2623B" d="M247.735,99.531c-3.521-2.563-7.535-4.57-11.49-5.319c-2.829-0.537-6.046-0.317-9.149-0.45
				c3.849,3.712,6.989,8,9.814,12.53c0.242,0.394-0.485,1.028-0.779,0.662c-1.802-2.209-4.41-3.896-6.921-5.197
				c-0.631-0.334-1.356-0.714-2.143-1.077c4.742,6.562,7.321,14.191,8.613,22.611c0.057,0.406-0.756,0.992-0.882,0.496
				c-1.191-4.765-4.829-8.689-8.9-11.589c0.745,3.437,1.025,6.996,0.904,10.385c-0.258,6.913-2.08,14.123-7.628,18.696
				c-7.82,6.445-17.507,9.687-27.112,12.464c-8.971,2.601-18.691,5.092-28.043,3.272c-0.298-0.059-0.254-0.401-0.085-0.583
				c1.022-1.141,1.97-2.326,2.86-3.558c-3.037,2.075-6.595,3.517-9.988,4.374c-0.611,0.154-0.442-0.505-0.1-0.736
				c9.866-6.654,15.114-17.131,12.134-28.981c-1.238-4.936-4.268-9.57-3.239-14.832c0.957-4.848,3.767-8.923,6.697-12.8
				c-1.69,0.967-2.929,2.419-3.817,4.22c-0.118,0.241-0.919,0.606-0.838,0.095c0.842-5.617-0.013-12.954-5.456-16.144
				c-6.424-3.772-10.854,3.866-11.854,9.279c-0.054,0.274-0.601,0.683-0.83,0.382c-1.951-2.561-1.11-5.916,0.385-8.614
				c-1.546,1.467-2.821,3.169-3.96,5.008c-0.133,0.223-0.667,0.602-0.828,0.19c-1.716-4.524-0.316-9.474,2.313-13.639
				c-1.137,1.247-2.101,2.629-2.817,4.225c-1.032,2.298-1.875,4.67-3.023,6.921c-0.119,0.231-0.447,0.447-0.709,0.323
				c-14.959-6.736-36.496-10.374-48.569,3.625c-0.159,0.184-0.628,0.435-0.758,0.083c-0.114-0.297-0.241-0.584-0.353-0.876
				c-0.171,0.044-0.328,0.016-0.413-0.149c-0.913-1.865-1.747-3.995-2.736-6.007c-1.673-2.62-3.705-5.004-6.142-6.925
				c-0.224-0.097-0.451-0.197-0.691-0.282c2.354,2.167,4.297,4.796,4.912,8.016c0.656,3.442,0.256,6.872-0.365,10.284
				c-0.051,0.271-0.802,0.751-0.873,0.299c-0.622-4.097-3.664-13.465-9.456-8.721c-5.456,4.467-6.485,10.693-4.53,17.19
				c0.122,0.399-0.505,0.859-0.835,0.577c-2.033-1.746-4.448-2.526-6.929-3.136c2.807,1.77,5.474,3.752,7.62,6.25
				c3.011,3.493,6.04,8.699,4.761,13.495c-0.871,3.282-2.608,6.246-2.999,9.67c-0.339,2.903-0.178,5.854,0.726,8.651
				c1.921,5.931,5.909,10.725,10.422,14.898c0.339,0.313-0.356,0.758-0.619,0.75c-8.646-0.396-17.159-2.977-25.646-4.553
				c-7.271-1.35-14.662-3.201-21.005-7.161c-4.535-2.838-8.578-6.522-10.596-11.593c-1.868-4.696-2.312-9.776-2.634-14.78
				c-3.886,4.822-6.159,10.24-6.851,16.263c0.824-3.088,1.895-5.826,3.486-8.269c0.657,4.938,2.326,9.776,5.394,13.616
				c5.732,7.172,15.406,8.961,23.746,11.814c4.551,1.561,9.489,2.481,14.137,3.791c4.843,1.364,9.753,2.621,14.704,3.599
				c7.811,1.54,15.878,2.968,23.937,3.632c1.751,0.703,3.458,1.351,5.059,1.978c6.659,2.592,14.562,3.103,21.776,2.656
				c7.214,0.446,15.118-0.064,21.777-2.656c1.597-0.627,3.313-1.274,5.061-1.978c8.056-0.664,16.126-2.092,23.938-3.632
				c4.944-0.978,9.858-2.234,14.705-3.599c4.646-1.31,9.582-2.23,14.137-3.791c8.338-2.854,18.016-4.643,23.748-11.814
				c3.06-3.84,4.73-8.678,5.388-13.616c1.607,2.472,2.682,5.237,3.526,8.373c0.113,0.442,1.214,1.2,1.481,0.473
				c2.338-6.293,2.054-13.431-0.413-19.64c-1.046-2.64-2.243-5.196-3.727-7.61c2.277,0.522,4.521,1.145,6.519,2.296
				c0.675,0.39,1.378,0.121,1.145-0.713c-0.801-2.937-3.262-5.333-5.202-7.604c-0.786-0.91-1.576-1.853-2.419-2.729
				c3.103-0.917,6.23-1.713,9.237-1.183c0.898,0.154,0.985-0.702,0.677-1.283C248.012,99.908,247.879,99.718,247.735,99.531z"/>
			<path fill="#AE71AD" d="M68.021,25.466c-0.051,0-0.097,0.095-0.036,0.095C68.035,25.561,68.077,25.466,68.021,25.466z"/>
			<path fill="#382009" d="M76.081,81.271c6.076,0.528,9.803,7.598,13.735,11.987c-0.792-6.412-5.611-19.039-12.049-19.867
				c-7.193-0.924-10.879,6.485-11.298,12.805C68.672,83.122,72.431,80.959,76.081,81.271z"/>
			<path fill="#382009" d="M158.126,80.715c-6.08,0.522-9.807,7.599-13.737,11.985c0.79-6.409,5.609-19.034,12.049-19.867
				c7.191-0.925,10.875,6.488,11.301,12.809C165.527,82.565,161.771,80.401,158.126,80.715z"/>
			<g>
				<path fill="#512D19" d="M167.718,98.47c0.186,6.118-3.003,11.17-7.118,11.295c-4.116,0.126-7.601-4.727-7.778-10.847
					c-0.184-6.11,3.007-11.176,7.119-11.296C164.052,87.498,167.534,92.362,167.718,98.47z"/>
				<path fill="#2A1300" d="M166.09,98.634c0.145,4.775-2.349,8.729-5.553,8.824c-3.221,0.091-5.936-3.701-6.083-8.483
					c-0.141-4.77,2.35-8.722,5.563-8.817C163.226,90.062,165.942,93.856,166.09,98.634z"/>
				<path fill="#FFFFFF" d="M161.361,94.823c0.068,2.344-1.155,4.283-2.729,4.328c-1.586,0.048-2.918-1.811-2.988-4.163
					c-0.077-2.347,1.152-4.281,2.729-4.335C159.956,90.609,161.286,92.466,161.361,94.823z"/>
				<path fill="#FFFFFF" d="M156.804,103.388c0.024,0.907-0.449,1.652-1.06,1.671c-0.613,0.022-1.131-0.694-1.151-1.607
					c-0.032-0.902,0.441-1.649,1.057-1.67C156.262,101.762,156.768,102.479,156.804,103.388z"/>
			</g>
			<g>
				<path fill="#512D19" d="M84.091,102.094c0.177,6.119-3.008,11.175-7.123,11.296c-4.111,0.121-7.597-4.729-7.779-10.85
					c-0.186-6.11,3.003-11.174,7.112-11.294C80.422,91.125,83.896,95.982,84.091,102.094z"/>
				<path fill="#2A1300" d="M82.454,102.258c0.145,4.777-2.345,8.725-5.559,8.824c-3.209,0.096-5.932-3.701-6.073-8.481
					c-0.139-4.771,2.347-8.723,5.559-8.818C79.594,93.688,82.314,97.481,82.454,102.258z"/>
				<path fill="#FFFFFF" d="M77.72,98.444c0.078,2.348-1.143,4.284-2.728,4.337c-1.575,0.044-2.914-1.816-2.982-4.168
					c-0.068-2.348,1.152-4.285,2.735-4.334C76.321,94.232,77.653,96.091,77.72,98.444z"/>
				<path fill="#FFFFFF" d="M73.169,107.009c0.026,0.91-0.448,1.657-1.059,1.679c-0.61,0.015-1.127-0.699-1.15-1.607
					c-0.034-0.909,0.441-1.656,1.056-1.674C72.618,105.386,73.137,106.105,73.169,107.009z"/>
			</g>
			<path fill="#A2623B" d="M182.991,94.464c-5.746,1.927-12.057,3.572-16.001,8.537c-2.86,3.594-3.755,8.347-3.463,12.854
				c0.774-1.449,1.518-2.926,2.324-4.36c0.635-2.569,1.497-5.057,2.884-7.398c2.58-4.363,10.009-7.346,14.268-9.541
				C183.056,94.529,183.069,94.437,182.991,94.464z"/>
			<path fill="#A2623B" d="M56.334,102.549c5.758,1.926,12.052,3.575,16.002,8.535c2.86,3.6,3.759,8.347,3.463,12.854
				c-0.776-1.448-1.521-2.922-2.328-4.362c-0.631-2.563-1.495-5.054-2.88-7.396c-2.569-4.358-10.013-7.347-14.266-9.537
				C56.273,102.614,56.259,102.527,56.334,102.549z"/>
			<path opacity="0.7" fill="#DDD7D0" d="M165.488,125.895c-3.956-10.529-14.043-20.184-20.986-27.017
				c-7.177-7.037-17.511-10.469-27.404-10.397c-12.079,0.084-19.697,5.805-28.158,13.771c-5.671,5.345-10.146,12.802-13.294,19.867
				c-3.338,7.474-3.777,15.171-0.27,22.667c3.477,7.404,10.774,12.985,18.241,15.88c6.138,2.379,14.56,1.091,19.959-2.573
				c1.917-1.307,3.251-3.443,4.16-5.896c1.685,3.146,4.535,5.373,8.163,6.468c10.887,3.29,22.854,2.18,31.485-5.548
				c3.521-3.157,7.177-7.697,8.721-12.208C167.831,135.847,167.313,130.777,165.488,125.895z"/>
			<path fill="#DDD7D0" d="M165.488,125.895c-0.241-0.623-0.495-1.241-0.773-1.858c-0.316,1.084-0.752,2.168-1.37,3.243
				c-3.292,5.757-10.237,13.055-17.342,13.287c-0.354,0.011-0.645-0.229-0.51-0.608c0.988-2.798,2.447-5.406,2.929-8.292
				c-1.782,2.451-3.938,4.54-6.464,6.342c-0.385,0.278-1.277,0.42-1.063-0.348c0.9-3.308,2.269-7.821-0.127-10.861
				c-2.343-2.974-6.142-4.856-9.768-5.794c-7.025-1.818-14.626-1.869-21.795-0.93c-5.855,0.761-13.586,1.435-18.063,5.735
				c-6.671,6.421,0.104,14.613,2.664,21.194c0.23,0.599-0.719,1.268-1.233,1.032c-7.088-3.113-13.898-8.271-15.013-15.594
				c-0.375,1.74-0.665,3.505-0.879,5.309c-0.061,0.534-1.112,1.445-1.447,0.655c-1.199-2.806-1.798-5.574-1.973-8.31
				c-0.752,4.905-0.155,9.839,2.114,14.688c3.477,7.404,10.774,12.985,18.241,15.88c6.138,2.379,14.56,1.091,19.959-2.573
				c1.917-1.307,3.251-3.443,4.16-5.896c1.685,3.146,4.535,5.373,8.163,6.468c10.887,3.29,22.854,2.18,31.485-5.548
				c3.521-3.157,7.177-7.697,8.721-12.208C167.831,135.847,167.313,130.777,165.488,125.895z"/>
			<path fill="#DDD7D0" d="M151.429,151.065c-7.148,3.36-23.236,8.046-27.791-1.769c-0.197-0.44,0.393-0.928,0.728-1.052
				c6.949-2.564,11.401-8.652,11.761-15.888c-5.642,6.714-12.7,10.97-21.891,10.81c-7.281-0.133-14.192-2.825-16.668-9.037
				c-0.817,7.118,5.479,13.433,11.71,16.635c0.265,0.134,0.256,0.511,0.105,0.73c-4.789,7.264-17.465,6.584-24.276,2.855
				c-7.053-3.868-10.547-10.216-11.962-17.362c0.305,2.615,1.027,5.216,2.231,7.798c3.477,7.404,10.774,12.985,18.241,15.88
				c6.138,2.379,14.56,1.091,19.959-2.573c1.917-1.307,3.251-3.443,4.16-5.896c1.685,3.146,4.535,5.373,8.163,6.468
				c10.887,3.29,22.854,2.18,31.485-5.548c3.521-3.157,7.177-7.697,8.721-12.208c0.235-0.702,0.423-1.397,0.574-2.098
				C162.584,143.863,157.33,148.297,151.429,151.065z"/>
			<path opacity="0.6" fill="#462A12" d="M116.511,145.734c0,0-0.213,3.974,1.466,7.318c0,0-0.422-5.854,0.203-7.318H116.511z"/>
			<g>
				<path fill="#462A12" d="M136.065,130.312c-0.129-0.326-0.263-0.645-0.414-0.975c-2.696-5.679-12.26-5.469-17.335-5.894
					c-5.911-0.483-13.92-0.215-19.146,3.006c-6.151,3.792-3.846,10.249,0.343,14.42c5.494,5.474,13.258,7.143,20.681,5.855
					C127.516,145.452,139.461,139.484,136.065,130.312z"/>
				<path opacity="0.5" fill="#462A12" d="M136.065,130.312c-0.129-0.326-0.263-0.645-0.414-0.975
					c-0.07-0.14-0.154-0.255-0.226-0.389c-0.463,1.784-1.332,3.481-2.437,4.737c-4.619,5.256-14.372,6.62-20.902,6.06
					c-4.517-0.387-13.938-1.643-15.134-7.302c-0.36-1.73-0.131-3.274,0.494-4.635c-3.876,3.841-1.661,9.352,2.065,13.061
					c5.494,5.474,13.258,7.143,20.681,5.855C127.516,145.452,139.461,139.484,136.065,130.312z"/>
				<path fill="#FFFFFF" d="M129.966,126.313c-4.293-2.037-15.194-2.018-21.962-1.485c-7.11,0.555-10.174,5.71-10.174,5.71
					c4.325-3.403,10.795-4.395,16.871-4.474C119.722,125.825,124.857,126.183,129.966,126.313z"/>
			</g>
			<path opacity="0.6" fill="#DDD7D0" d="M107.883,110.734c-1.195,0.017-2.366,0.064-3.549,0.163
				c-0.585,0.051-1.188,0.19-1.802,0.313c0.262-0.123,0.514-0.248,0.758-0.372c1.435-0.67,2.935-1.189,4.454-1.632
				c-2.058,0.084-4.116,0.342-6.163,0.885c-0.238,0.063-0.53-0.045-0.428-0.349c1.36-3.991,4.871-6.409,8.139-8.818
				c-3.169-0.342-6.293,0.819-9.358,1.505c-0.495,0.11-0.286-0.509-0.108-0.683c4.922-4.649,10.091-9.099,16.003-12.432
				c-1.796-0.439-5.105,0.629-5.998,0.94c-2.887,1.01-5.75,2.314-8.402,3.826c-8.468,4.805-15.592,12.443-19.845,21.2
				c-2.199,4.54-4.948,9.102-4.948,14.299c0,0.027-0.006,0.054-0.006,0.08c0.006,0.414,0.589,0.049,0.631-0.208
				c0.439-2.879,2.529-5.491,4.382-7.677c-0.383,0.58-0.705,1.18-1.008,1.8c-0.492,1.023-0.733,2.156-0.953,3.259
				c-0.445,2.226,0.268,4.06,1.356,5.969c0.621,1.082,1.445,2.991,2.52,4.014c-0.131-2.484-0.258-5.086,0.437-7.386
				c0.104-0.93,0.323-1.831,0.666-2.626c3.565-10.415,20.255-12.047,30.247-15.354c-0.023-0.121-0.04-0.24-0.06-0.356
				C112.543,110.746,110.229,110.704,107.883,110.734z"/>
			<path opacity="0.3" fill="#A2623B" d="M169.074,53.763c-2.09-1.618-5.818-1.928-8.354-2.474
				c-3.962-0.858-7.86-0.997-11.856-0.366c-1.648,0.262-3.291,0.705-4.912,1.127c-0.021,0.01-0.059,0.018-0.086,0.025
				c0.891-1.268,1.855-2.488,2.982-3.595c0.456-0.447,0.994-0.922,1.578-1.367c0.546-0.312,1.093-0.635,1.641-0.983
				c0.053-0.044,0.115-0.104,0.163-0.175c0.371-0.196,0.744-0.369,1.108-0.496c0.438-0.149,0.51-0.28,0.728-0.705
				c0.034-0.068,0.069-0.165,0.075-0.25c-1.572-0.47-3.231-0.702-4.92-0.752c-0.288,0.024-0.561,0.042-0.79,0.05
				c-3.273,0.111-6.576,1.021-9.694,1.97c-2.741,0.826-5.301,2.05-7.691,3.59c-0.177,0.108-0.373,0.234-0.58,0.361
				c0.504-1.688,1.755-5.292,3.174-5.975c0.257-0.127,0.674-0.928,0.107-0.896c-3.537,0.193-7.282,2.313-10.255,4.122
				c-1.699,1.027-3.27,2.347-4.532,3.896c0.419-1.016,0.898-2.025,1.482-3.065c0.793-1.417,1.96-2.857,2.483-4.38
				c0.089-0.248-0.153-0.36-0.345-0.225c-1.431,1.025-2.717,2.291-4.021,3.46c-0.909,0.81-1.851,1.573-2.688,2.465
				c-0.351,0.371,0.046-1.786,0.046-1.778c0.54-3.505,0.127-6.726-0.485-10.073c-0.417-0.812-0.873-1.598-1.401-2.323
				c0,0.036-0.008,0.079,0,0.119c0.492,1.964,0.405,4.958-0.34,7.121c-0.127-0.483-0.2-1.007-0.392-1.438
				c-0.497-1.068-0.983-2.199-1.715-3.137c-1.554-1.984-3.435-3.553-5.772-4.502c-4.928-2.012-10.346-1.546-15.555-1.15
				c2.277-0.924,4.502-1.968,6.896-2.622c3.321-0.913,6.919-1.278,10.348-1.421c2.9-0.121,5.885,0.69,8.713,1.2
				c1.481,0.269,2.717,0.772,4.008,1.519c0.477,0.268,0.841,0.565,1.29,0.665c-1.804-2.323-3.668-4.63-6.224-6.039
				c-2.751-1.52-5.675-2.217-8.694-2.613c0.462,0.975,1.252,1.917,1.749,2.878c-1.979-0.229-3.912-0.965-5.972-0.963
				c-1.288,0-2.511,0.104-3.716,0.31c-0.568,0.01-1.146,0.029-1.718,0.059c-10.486,1.693-20.205,4.829-28.271,12.243
				c-3.114,2.867-7.572,10.415-12.597,12.053c3.43,2.038,7.604,2.51,11.536,1.937c-2.041,1.077-4.216,1.97-6.304,2.774
				c-1.399,0.548-2.872,0.938-4.266,1.491c-0.898,0.356-1.908,0.459-2.867,0.67c-0.572,0.204-1.153,0.428-1.722,0.658
				c-0.125,0.151-0.21,0.374,0,0.436c1.599,0.465,3.233,0.911,4.896,1.15c1.57,0.22,3.118,0.114,4.676,0.177
				c-1.344,0.672-2.685,1.53-3.591,2.657c-0.111,0.135-0.192,0.446,0.072,0.462c1.131,0.088,2.374-0.301,3.503-0.414
				c1.06-0.104,2.1-0.095,3.162-0.095c0.189,0,2.054,0.214,1.469,0.388c-3.325,1.01-6.463,2.605-9.479,4.329
				c-5.356,3.061-9.162,7.237-11.432,12.699c-0.026,0.231-0.057,0.466-0.072,0.705c-0.022,0.435-0.111,1.252-0.14,2.124
				c0.539-0.497,0.825-1.09,1.415-1.689c1.182-1.186,2.314-2.396,3.681-3.379c0.889-0.639,2.3-1.313,2.982-2.162
				c-0.411,0.52-0.711,1.076-0.846,1.769c-0.708,3.495-0.166,7.097,0.955,10.521c0.9,1.626,1.916,3.189,3.047,4.654
				c0.248-2.684,0.583-5.113,1.512-7.764c1.101-3.126,2.558-6.158,4.183-9.038c2.94-5.211,7.944-9.637,12.832-12.963
				c0.205-0.104,0.407-0.195,0.616-0.287c3.036-1.249,5.999-1.77,9.273-1.495c5.886,0.493,10.772,3.308,15.352,6.75
				c0.377,0.287,0.881-0.09,1.015-0.469c0.404-1.098-0.528-1.892-1.103-2.794c-0.479-0.755-1.091-1.407-1.682-2.074
				c-0.985-1.11-1.395-1.521,0.218-0.558c2.55,1.521,4.888,3.37,6.163,6.118c0.837,1.814,1.991,4.489,1.853,6.722
				c0.766-0.604,1.558-1.178,2.36-1.736c2.044-3.355,3.751-7.002,4.64-10.817c0.364,1.945,0.87,3.874,1.427,5.814
				c0.121,0.424,0.633,0.242,0.796-0.056c0.551-0.984,0.397-2.34,0.53-3.438c0.119-0.933,0.228-1.859,0.341-2.792
				c0.135,0.481,0.286,0.953,0.455,1.402c0.665,1.823,1.29,3.529,2.251,5.225c0.716,1.255,1.347,2.935,2.419,3.909
				c0.478,0.43,1.114-0.332,1.086-0.8c-0.224-4.069,0.166-8.047,1.591-11.873c0.313,3.67,1.505,6.851,2.975,10.316
				c0.929,2.179,2.101,4.226,3.348,6.229c0.659,1.058,1.292,2.364,2.308,3.144c0.488-2.418,1.266-4.631,2.806-6.704
				c1.211-2.376,2.983-4.457,4.801-6.38c3.833-4.035,8.675-6.735,13.792-8.697c-1.326,1.693-2.387,3.856-3.114,5.775
				c2.143-1.971,4.67-3.548,7.314-4.779c2.558-1.193,5.176-2.334,7.995-2.748c1.347-0.198,2.707-0.293,4.06-0.354
				C169.143,53.841,169.118,53.801,169.074,53.763z"/>
			<path opacity="0.3" fill="#A57D40" d="M36.103,117.39c1.122-1.131,2.704-2.024,4.051-2.716c1.08-0.758,2.215-1.436,3.463-1.882
				c1.046-0.382,2.12-0.584,3.204-0.669c1.604-0.397,3.241-0.657,4.852-0.732c5.593-0.258,10.811,1.231,15.583,3.793
				c-0.036-0.048-0.072-0.097-0.122-0.155c-4.797-5.245-10.56-9.124-17.394-11.165c-8.961-2.674-17.182-0.464-23.843,5.892
				c-0.149,0.142-0.063,0.395,0.159,0.31c3.533-1.377,7.09-2.076,10.853-2.421c0.119,0.034,0.216,0.054,0.316,0.071
				c-0.489,0.231-0.976,0.465-1.451,0.719c-0.979,0.527-1.827,1.269-2.647,2.008c-3.552,3.205-5.384,9.831-4.146,14.427
				c0.083,0.333,0.496,0.111,0.574-0.113c1.165-3.404,3.558-6.993,6.635-9.085C35.987,115.81,36.058,116.869,36.103,117.39z"/>
			<path opacity="0.3" fill="#A57D40" d="M207.039,102.407c-0.853-0.609-1.781-1.107-2.719-1.579
				c-0.061-0.033-0.125-0.055-0.188-0.086c0.2,0.036,0.396,0.072,0.603,0.106c2.739,0.488,5.134,1.715,7.724,2.455
				c-1.981-3.715-5.682-5.97-9.7-7.372c-5.384-1.878-12.176-1.755-17.436,0.445c-2.844,1.187-5.346,3.106-7.593,5.196
				c-1.387,1.278-2.535,2.918-3.719,4.473c-0.063,0.144-0.135,0.289-0.205,0.443c1.641-1.27,3.196-2.313,5.195-3.032
				c2.068-0.734,3.967-1.64,6.142-2.063c0.845-0.164,2.834-0.718,4.214-0.679c-0.715,0.163-1.449,0.297-2.126,0.575
				c-1.887,0.775-3.327,1.629-4.884,2.979c-2.583,2.24-5.042,5.052-6.213,8.316c-0.123,0.353,0.32,0.335,0.459,0.102
				c0.75-1.25,1.881-1.982,3.134-2.612c0.293-0.153,2.493-1.376,1.296-0.153c-1.078,1.094-1.898,2.451-2.69,3.759
				c-0.862,1.438-1.479,3.11-1.944,4.708c-0.049,0.16-0.1,0.313-0.151,0.461c0.332-0.351,0.671-0.691,1.012-1.025
				c3.217-3.13,6.959-6.266,11.041-8.223c4.189-2.014,9.077-3.231,13.743-2.596c4.113,0.56,7.834,2.189,11.532,3.92
				C212.985,107.528,209.545,104.214,207.039,102.407z"/>
		</g>
	</g>
</g>
</svg>
